<?xml version="1.0" encoding="UTF-8"?>
<svg id="Layer_2" data-name="Layer 2" xmlns="http://www.w3.org/2000/svg" viewBox="0 0 30.86 17.32">
  <defs>
    <style>
      .cls-1 {
        fill: #ea5f28;
      }
    </style>
  </defs>
  <g id="Layer_1-2" data-name="Layer 1">
    <path class="cls-1" d="M24.28,4.17c-.9,0-1.75,.18-2.53,.51l-1.86-3.62h2.61c.28,0,.51,.23,.51,.51s-.23,.51-.51,.51h-.56c-.29,0-.53,.24-.53,.53s.24,.53,.53,.53h.56c.87,0,1.57-.71,1.57-1.57s-.71-1.57-1.57-1.57h-3.48c-.18,0-.36,.1-.45,.25-.1,.16-.1,.35-.02,.52l.93,1.8h-7.65l-.77-1.51h1.22c.29,0,.53-.24,.53-.53s-.24-.53-.53-.53h-3.48c-.29,0-.53,.24-.53,.53s.24,.53,.53,.53h1.07l1.03,2.02-1.21,1.88c-.93-.5-1.99-.78-3.11-.78-3.63,0-6.58,2.95-6.58,6.58s2.95,6.58,6.58,6.58,6.28-2.67,6.56-6.05h1.55l-.6,1.97h-.35c-.29,0-.53,.24-.53,.53s.24,.53,.53,.53h1.91c.29,0,.53-.24,.53-.53s-.24-.53-.53-.53h-.45l.7-2.27,4.41-6.81,.51,1c-1.86,1.16-3.1,3.23-3.1,5.58,0,3.63,2.95,6.58,6.58,6.58s6.58-2.95,6.58-6.58c0-3.63-2.95-6.58-6.58-6.58Zm-12.83,0l3.09,6.05h-1.41c-.15-1.91-1.12-3.59-2.56-4.69l.88-1.36Zm.61,6.05H7.55l2.45-3.79c1.15,.91,1.92,2.26,2.07,3.79Zm-5.49,6.05c-3.04,0-5.52-2.48-5.52-5.52S3.53,5.23,6.58,5.23c.91,0,1.77,.22,2.53,.62l-2.98,4.61c-.11,.16-.11,.37-.02,.54,.09,.17,.27,.28,.47,.28h5.49c-.27,2.79-2.63,4.99-5.49,4.99Zm8.88-6.58l-3.09-6.06h7.01l-3.92,6.06Zm8.83,6.58c-3.04,0-5.52-2.48-5.52-5.52,0-1.94,1.01-3.65,2.53-4.64l2.51,4.88c.09,.18,.28,.29,.47,.29,.08,0,.16-.02,.24-.06,.26-.13,.36-.45,.23-.71l-2.52-4.88c.63-.25,1.32-.39,2.04-.39,3.04,0,5.52,2.48,5.52,5.52s-2.48,5.52-5.52,5.52Z"/>
  </g>
</svg>