<?xml version="1.0" encoding="UTF-8"?>
<svg id="Layer_2" data-name="Layer 2" xmlns="http://www.w3.org/2000/svg" viewBox="0 0 25.26 25.25">
  <defs>
    <style>
      .cls-1 {
        fill: #ea5f28;
      }
    </style>
  </defs>
  <g id="Layer_1-2" data-name="Layer 1">
    <path class="cls-1" d="M24.4,20.57c-.5-.46-1.16-.72-1.84-.72-.12,0-.25,.02-.37,.04l-2.24-3.73c1.94-1.51,2.28-4.31,.76-6.25-.38-.49-.86-.89-1.41-1.18l1.98-3.31c.12,.02,.24,.03,.37,.04,1.5,.01,2.73-1.2,2.74-2.7,.01-1.5-1.2-2.73-2.7-2.74-1.5-.01-2.73,1.2-2.74,2.7,0,.69,.26,1.37,.73,1.87l-2.16,3.6c-.13,0-.24-.03-.37-.03-.92,0-1.81,.28-2.56,.81L7.22,4.05c.02-.13,.04-.26,.04-.39C7.28,1.66,5.66,.02,3.66,0,1.66-.02,.02,1.59,0,3.6c-.02,2,1.59,3.64,3.6,3.66,1.17,0,2.27-.54,2.96-1.49l6.79,4.52c-.28,.45-.49,.94-.6,1.46H7.09c-.5-1.41-2.04-2.14-3.44-1.65-1.41,.5-2.14,2.04-1.65,3.44,.5,1.41,2.04,2.14,3.44,1.65,.77-.27,1.37-.88,1.65-1.65h5.65c.11,.52,.31,1.01,.6,1.46l-6.78,4.52c-1.18-1.59-3.42-1.93-5.01-.75-1.59,1.18-1.93,3.42-.75,5.01,1.18,1.59,3.42,1.93,5.01,.75,.92-.68,1.46-1.76,1.45-2.9,0-.13-.02-.26-.04-.39l7.38-4.92c1.08,.78,2.47,1.01,3.75,.63l2.25,3.74c-1.01,1.09-.94,2.79,.15,3.8,1.09,1.01,2.79,.94,3.8-.15,1.01-1.09,.94-2.79-.15-3.8ZM21.65,1.86c.5,0,.9,.4,.9,.9s-.4,.9-.9,.9-.9-.4-.9-.9,.4-.9,.9-.9ZM3.66,5.46c-.99,0-1.8-.81-1.8-1.8s.81-1.8,1.8-1.8,1.8,.81,1.8,1.8-.81,1.8-1.8,1.8Zm.9,8.1c-.5,0-.9-.4-.9-.9s.4-.9,.9-.9,.9,.4,.9,.9-.4,.9-.9,.9Zm-.9,9.9c-.99,0-1.8-.81-1.8-1.8s.81-1.8,1.8-1.8,1.8,.81,1.8,1.8-.81,1.8-1.8,1.8Zm13.5-8.1c-1.49,0-2.7-1.21-2.7-2.7s1.21-2.7,2.7-2.7,2.7,1.21,2.7,2.7-1.21,2.7-2.7,2.7Zm5.4,8.1c-.5,0-.9-.4-.9-.9s.4-.9,.9-.9,.9,.4,.9,.9-.4,.9-.9,.9Z"/>
  </g>
</svg>