<?xml version="1.0" encoding="UTF-8"?>
<svg id="Layer_2" data-name="Layer 2" xmlns="http://www.w3.org/2000/svg" viewBox="0 0 25.53 23.93">
  <defs>
    <style>
      .cls-1 {
        fill: #ea5f28;
      }
    </style>
  </defs>
  <g id="Layer_1-2" data-name="Layer 1">
    <g>
      <path class="cls-1" d="M24.78,12.81h-5.66v-1.7h1.25c.71,0,1.02-.9,.47-1.34l-6.27-4.95c1.91-1.67,.72-4.83-1.81-4.83s-3.72,3.15-1.81,4.83l-6.27,4.95c-.56,.44-.25,1.34,.47,1.34h1.25v1.7H.75c-.41,0-.75,.34-.75,.75v9.61c0,.41,.34,.75,.75,.75H24.78c.41,0,.75-.34,.75-.75V13.57c0-.41-.34-.75-.75-.75ZM12.76,1.5c.69,0,1.25,.56,1.25,1.25s-.56,1.25-1.25,1.25-1.25-.56-1.25-1.25,.56-1.25,1.25-1.25Zm-.23,3.99c.17,.01,.3,.01,.47,0l5.21,4.12H7.32l5.21-4.12ZM1.5,14.32H6.41v8.11h-1.7v-3.65c0-.41-.34-.75-.75-.75s-.75,.34-.75,.75v3.65H1.5V14.32Zm6.41-3.2h9.71v11.31h-1.7v-4.05c0-.41-.34-.75-.75-.75h-4.81c-.41,0-.75,.34-.75,.75v4.05h-1.7V11.11Zm3.2,11.31v-3.3h3.3v3.3h-3.3Zm12.91,0h-1.7v-3.65c0-.41-.34-.75-.75-.75s-.75,.34-.75,.75v3.65h-1.7V14.32h4.91v8.11Z"/>
      <path class="cls-1" d="M10.36,14.32h4.81c.41,0,.75-.34,.75-.75s-.34-.75-.75-.75h-4.81c-.41,0-.75,.34-.75,.75s.34,.75,.75,.75Z"/>
    </g>
  </g>
</svg>