<?xml version="1.0" encoding="UTF-8"?>
<svg id="Layer_2" data-name="Layer 2" xmlns="http://www.w3.org/2000/svg" viewBox="0 0 19.69 19.7">
  <defs>
    <style>
      .cls-1 {
        fill: #e9b15c;
      }
    </style>
  </defs>
  <g id="Layer_1-2" data-name="Layer 1">
    <path class="cls-1" d="M19.69,9.24C19.35,3.81,14.68-.32,9.24,.02,3.81,.35-.32,5.03,.02,10.46c.32,5.2,4.63,9.25,9.84,9.24h5.73c2.26,0,4.1-1.84,4.1-4.1v-6.36Zm-1.64,6.36c0,1.36-1.1,2.46-2.46,2.46h-5.73c-2.34,0-4.57-1-6.13-2.74-1.57-1.74-2.31-4.08-2.03-6.41,.45-3.74,3.37-6.69,7.1-7.19,.35-.04,.71-.07,1.07-.07,1.91,0,3.76,.66,5.23,1.89,1.73,1.44,2.8,3.53,2.95,5.78v6.28Z"/>
  </g>
</svg>