<?xml version="1.0" encoding="UTF-8"?>
<svg id="Layer_2" data-name="Layer 2" xmlns="http://www.w3.org/2000/svg" viewBox="0 0 468.51 429.44">
  <defs>
    <style>
      .cls-1 {
        stroke: #e9b15c;
      }

      .cls-1, .cls-2 {
        fill: #1c1c1c;
        stroke-miterlimit: 10;
        stroke-width: .99px;
      }

      .cls-3 {
        fill: #e9b15c;
      }

      .cls-4 {
        opacity: .4;
      }

      .cls-2 {
        stroke: #e8b15c;
      }
    </style>
  </defs>
  <g id="Layer_1-2" data-name="Layer 1">
    <g id="map">
      <g class="cls-4">
        <g>
          <path class="cls-3" d="M461.23,332.75c0-.34,.04-1.05-.07-1.37-.09-.27-.43-.74-.64-.92-.17-.15-.6-.32-.8-.41-.29-.12-.97-.19-1.18-.42-.19-.19-.19-.79-.32-1.03-.09-.18-.31-.59-.5-.63-.25-.05-.67,.36-.89,.49-.15,.09-.42,.38-.6,.39-.24,0-.69-.3-.83-.49-.18-.24-.25-.87-.25-1.17,0-.37,.4-1.08,.34-1.44-.05-.31-.37-.91-.63-1.07-.21-.12-.73,.03-.96-.03-.31-.08-.92-.36-1.15-.59-.19-.2-.36-.75-.46-1.01-.08-.19-.12-.62-.27-.77-.11-.11-.45-.2-.61-.2-.15,0-.4,.2-.53,.24-.13,.04-.39,.12-.53,.13-.21,0-.67-.02-.84-.14-.22-.16-.4-.71-.52-.95-.21-.4-.64-1.19-.82-1.6-.1-.24-.18-.79-.35-1-.19-.24-.75-.51-1.03-.65-.36-.17-1.13-.37-1.5-.52-.37-.15-1.17-.39-1.47-.66-.32-.3-.6-1.16-.82-1.54-.23-.39-.63-1.24-.97-1.55-.26-.24-.92-.54-1.26-.65-.29-.1-.92-.16-1.22-.22-.27-.05-.85-.08-1.07-.24-.29-.21-.59-.92-.74-1.25-.16-.33-.36-1.06-.54-1.39-.15-.27-.47-.83-.72-1.01-.21-.15-.76-.19-.98-.32-.2-.12-.54-.46-.65-.66-.18-.35-.2-1.17-.3-1.55-.11-.43-.32-1.31-.56-1.68-.18-.28-.73-.67-.96-.91-.19-.2-.59-.59-.7-.84-.1-.22-.22-.71-.14-.94,.08-.22,.56-.45,.69-.65,.14-.19,.36-.63,.38-.86,.03-.34-.14-1.01-.28-1.32-.16-.36-.68-.99-.95-1.28-.41-.45-1.33-1.26-1.81-1.63-.49-.38-1.63-.95-2.08-1.38-.42-.4-1.03-1.38-1.37-1.85-.41-.57-1.25-1.68-1.59-2.3-.34-.62-.83-1.96-1.08-2.63-.27-.73-.65-2.24-.98-2.94-.19-.4-.63-1.18-.94-1.49-.16-.16-.59-.35-.77-.49-.26-.21-.75-.68-.93-.96-.22-.35-.34-1.2-.59-1.53-.11-.15-.43-.37-.6-.46-.27-.15-.95-.21-1.15-.45-.24-.27-.31-1.05-.33-1.41-.02-.42,.31-1.24,.23-1.65-.07-.34-.44-.95-.69-1.19-.27-.26-1.04-.44-1.32-.69-.22-.19-.6-.67-.67-.95-.09-.38,.24-1.17,.23-1.56,0-.36-.12-1.08-.27-1.41-.13-.28-.54-.78-.79-.96-.29-.22-1.04-.35-1.35-.54-.32-.2-.91-.72-1.13-1.03-.29-.41-.64-1.36-.81-1.83-.2-.53-.48-1.65-.68-2.18-.17-.44-.56-1.32-.82-1.72-.24-.37-.88-1-1.15-1.35-.18-.23-.58-.68-.7-.96-.19-.47-.19-1.5-.31-1.99-.1-.39-.31-1.17-.53-1.5-.19-.28-.7-.75-.99-.94-.26-.17-.9-.29-1.15-.48-.18-.14-.45-.52-.56-.72-.16-.28-.33-.9-.48-1.18-.12-.22-.38-.66-.59-.81-.3-.22-1.09-.29-1.41-.48-.24-.15-.71-.52-.82-.79-.13-.32,.09-1.03,.05-1.37-.05-.46-.26-1.39-.49-1.79-.22-.37-.86-.98-1.21-1.24-.31-.23-1.08-.47-1.38-.72-.22-.18-.57-.62-.7-.87-.15-.3-.18-1-.33-1.29-.11-.22-.46-.56-.62-.75-.21-.25-.72-.68-.87-.96-.17-.31-.3-1.03-.36-1.38-.06-.35,.04-1.1-.1-1.43-.21-.48-1.05-1.15-1.41-1.53-.64-.68-1.98-1.98-2.56-2.71-.41-.51-1.17-1.59-1.47-2.18-.27-.52-.68-1.63-.86-2.18-.19-.59-.36-1.86-.65-2.41-.31-.58-1.23-1.56-1.71-2.01-.43-.4-1.43-1.02-1.88-1.4-.35-.31-1.02-.97-1.33-1.33-.2-.24-.61-.72-.72-1.02-.09-.24-.2-.78-.11-1.02,.1-.26,.72-.5,.81-.76,.11-.3-.03-.96-.13-1.26-.12-.37-.52-1.07-.8-1.34-.2-.19-.71-.46-.97-.53-.29-.08-.91,.06-1.19-.04-.3-.1-.75-.59-1.03-.73-.37-.2-1.24-.34-1.58-.58-.23-.16-.59-.62-.73-.87-.25-.45-.63-1.43-.63-1.94,0-.2,.09-.63,.23-.78,.14-.14,.6-.13,.77-.24,.2-.13,.6-.47,.64-.71,.04-.24-.23-.7-.38-.89-.11-.14-.53-.26-.6-.43-.09-.23,.05-.77,.18-.98,.13-.21,.54-.54,.78-.61,.26-.08,.84,.15,1.08,.04,.17-.08,.4-.44,.46-.62,.1-.3,.09-.96-.02-1.25-.08-.2-.35-.59-.56-.66-.22-.07-.68,.23-.91,.23-.4,0-1.23-.1-1.56-.32-.15-.1-.33-.44-.42-.6-.16-.3-.32-.99-.51-1.27-.18-.26-.75-.61-.93-.88-.18-.26-.43-.85-.49-1.15-.1-.57,.12-1.72,.08-2.3-.03-.48-.05-1.52-.34-1.9-.2-.26-.88-.43-1.18-.56-.29-.13-.9-.31-1.15-.51-.22-.17-.61-.6-.7-.87-.07-.21-.07-.7,.03-.9,.12-.25,.68-.5,.84-.73,.16-.22,.45-.73,.44-1,0-.4-.59-1.07-.71-1.45-.09-.29-.06-.92-.16-1.2-.16-.45-.63-1.34-1.02-1.61-.38-.26-1.35-.25-1.8-.35-.45-.1-1.4-.2-1.79-.44-.36-.21-.93-.86-1.13-1.23-.29-.54-.42-1.78-.56-2.38-.08-.32-.17-.99-.31-1.29-.14-.3-.54-.85-.78-1.07-.3-.28-1.11-.55-1.37-.86-.17-.21-.35-.74-.37-1-.03-.34,.3-1,.25-1.33-.05-.29-.36-.84-.58-1.04-.26-.23-.99-.35-1.26-.57-.21-.16-.53-.6-.64-.84-.15-.31-.18-1.01-.3-1.32-.13-.3-.41-.94-.69-1.1-.26-.15-.91,.04-1.19-.04-.29-.08-.83-.36-1.06-.56-.28-.24-.83-.83-.86-1.19-.02-.2,.17-.64,.35-.74,.21-.13,.72,0,.96,.03,.42,.06,1.27,.22,1.65,.41,.28,.14,.72,.63,.99,.79,.33,.19,1.07,.44,1.44,.54,.28,.08,.87,.18,1.16,.21,.22,.02,.69,.15,.87,.03,.14-.09,.22-.47,.23-.63,.01-.24-.09-.74-.23-.94-.19-.27-.81-.58-1.11-.71-.28-.12-.88-.26-1.19-.3-.28-.04-.86,.01-1.14-.04-.22-.04-.74-.1-.87-.29-.13-.19,0-.7,.03-.93,.04-.31,.32-.91,.25-1.21-.04-.17-.27-.46-.42-.54-.17-.09-.59-.11-.76-.03-.16,.08-.24,.5-.4,.57-.16,.07-.54,0-.7-.08-.19-.11-.47-.48-.56-.69-.1-.24-.2-.8-.11-1.05,.07-.18,.37-.47,.54-.53,.2-.08,.66-.07,.85,.03,.16,.08,.28,.46,.42,.57,.17,.13,.57,.29,.78,.32,.18,.02,.58,0,.73-.09,.21-.13,.46-.59,.52-.83,.1-.41,.1-1.33-.12-1.69-.26-.42-1.41-.61-1.69-1.02-.18-.28-.11-.99-.19-1.32-.05-.19-.11-.61-.27-.74-.2-.17-.81-.04-1.05-.15-.27-.12-.66-.58-.88-.79-.29-.27-.98-.75-1.13-1.12-.16-.4,.25-1.33,.06-1.72-.17-.33-.87-.74-1.23-.83-.32-.08-.99,.12-1.32,.16-.35,.04-1.05,.17-1.41,.16-.37-.01-1.16-.06-1.48-.25-.24-.15-.69-.61-.7-.9,0-.36,.75-.82,.83-1.17,.06-.28-.02-.89-.2-1.11-.16-.21-.69-.4-.95-.44-.25-.04-.75,.15-1,.14-.29,0-.88-.07-1.13-.21-.26-.15-.63-.66-.76-.93-.17-.36-.14-1.2-.33-1.55-.23-.44-.98-1.13-1.38-1.42-.28-.2-.98-.35-1.23-.57-.21-.18-.54-.66-.61-.92-.1-.37,.32-1.26,.05-1.54-.18-.19-.8,.04-1.05-.04-.3-.09-.93-.37-1.09-.65-.17-.31,.12-1.08,.05-1.42-.04-.2-.18-.63-.36-.74-.24-.16-.87,.06-1.14-.04-.27-.1-.66-.55-.88-.73-.24-.2-.77-.55-.96-.79-.31-.4-.72-1.35-.87-1.84-.17-.54-.16-1.73-.39-2.25-.24-.54-1.05-1.45-1.45-1.88-.33-.36-.99-1.12-1.44-1.3-.26-.11-.85-.05-1.14-.04-.26,.01-.77,.2-1.03,.14-.29-.07-.81-.44-1-.67-.23-.28-.48-1-.54-1.36-.09-.53,.05-1.61,.07-2.15,.02-.65,.21-1.97,.09-2.62-.09-.49-.44-1.45-.75-1.83-.22-.26-.84-.64-1.17-.74-.29-.09-.9,.01-1.19-.04-.51-.09-1.55-.31-1.96-.62-.38-.28-.82-1.14-1.06-1.55-.38-.65-1.02-2.03-1.31-2.72-.19-.47-.36-1.51-.66-1.92-.24-.32-1.03-.64-1.28-.95-.22-.27-.46-.95-.6-1.27-.12-.28-.42-.84-.43-1.15-.01-.35,.16-1.07,.4-1.33,.17-.18,.75-.17,.92-.35,.24-.27,.36-1.03,.4-1.38,.06-.61-.12-1.85-.24-2.45-.07-.34-.21-.89-.36-1.37-.08-.26-.16-.49-.24-.66-.28-.66-1.18-1.82-1.43-2.49-.23-.62-.47-1.92-.52-2.58-.04-.49,.2-1.5,.07-1.98-.15-.54-.78-1.5-1.19-1.87-.32-.29-1.1-.7-1.52-.78-.25-.05-.77,.13-1.03,.11-.4-.03-1.16-.26-1.53-.4-.24-.09-.75-.27-.92-.47-.24-.28-.28-1.08-.48-1.38-.3-.46-1.16-1.2-1.61-1.51-.27-.18-.89-.41-1.18-.56-.42-.22-1.34-.58-1.66-.93-.29-.32-.67-1.16-.7-1.6-.04-.62,.68-1.77,.69-2.39,0-.38-.25-1.13-.36-1.5-.1-.35-.4-1.02-.45-1.38-.06-.4-.13-1.26,.06-1.63,.17-.34,.88-.72,1.17-.95,.33-.26,1.01-.75,1.32-1.03,.3-.26,.86-.82,1.12-1.13,.18-.21,.59-.61,.64-.88,.08-.4-.17-1.24-.38-1.59-.21-.35-1.05-.7-1.22-1.06-.11-.23-.13-.79-.02-1.02,.12-.26,.6-.66,.87-.76,.21-.07,.66,.07,.91,.04,0,0,.01,0,.02,0,.01,0,.02,0,.03,0,.27-.07,.8-.35,.95-.58,.16-.24,.16-.84,.16-1.13,0-.43-.18-1.29-.23-1.73-.04-.4-.22-1.21-.15-1.61,.05-.32,.45-.86,.54-1.17,.14-.49,.26-1.52,.24-2.03,0-.25-.12-.75-.17-1-.06-.33-.08-1.04-.27-1.32-.19-.27-.91-.47-1.14-.71-.2-.2-.41-.77-.61-.98-.21-.22-.74-.58-1.03-.7-.14-.06-.46-.08-.61-.14-.06-.02-.12-.06-.2-.09-.07,.09-.14,.19-.16,.25-.05,.14,.09,.51-.02,.61-.16,.15-.7,.09-.9-.03-.09-.05-.2-.24-.27-.32-.06-.06-.19-.2-.26-.24-.2-.1-.66-.1-.87-.18-.17-.07-.43-.34-.6-.39-.2-.06-.66,.05-.85-.03-.16-.07-.38-.35-.59-.4-.25-.06-.78-.25-.9-.47-.08-.13,.09-.48,.02-.61-.08-.14-.44-.23-.56-.35-.07-.07-.13-.2-.19-.33-.04-.09-.08-.17-.12-.22-.08-.13-.23-.41-.35-.51-.15-.12-.55-.18-.69-.31-.2-.19-.47-.69-.54-.96-.05-.2-.04-.62,.03-.81,.07-.19,.43-.46,.52-.64,.1-.18,.1-.65,.25-.8,.1-.1,.38-.19,.61-.25-.04-.09-.07-.16-.08-.23-.16-.59-.02-1.85-.12-2.45-.07-.41-.27-1.23-.47-1.59-.18-.32-.83-.75-.98-1.08-.13-.28-.25-.92-.19-1.23,.07-.36,.63-.91,.77-1.25,.19-.47,.35-1.47,.45-1.97,.08-.43,.25-1.3,.26-1.74,.02-.71,0-2.18-.28-2.83-.14-.32-.72-.75-.9-1.05-.17-.29-.4-.93-.45-1.27-.08-.55,.15-1.66,.08-2.21-.05-.38-.4-1.09-.45-1.47-.1-.79,.08-2.38,.11-3.17,.02-.51,.1-1.53,.07-2.04-.03-.6-.3-1.77-.36-2.37-.03-.32-.06-.77-.08-1.24-.03-.63-.04-1.31,0-1.73,.03-.3,.29-.88,.3-1.18,0-.13-.02-.31-.06-.5t0,0c-.07-.34-.18-.72-.15-.96,.05-.38,.54-1.03,.57-1.41,.02-.25-.11-.75-.23-.97-.19-.36-.75-1.03-1.13-1.2-.34-.16-1.14,0-1.52-.05-.06,0-.14-.02-.21-.04l-1.48,2.48c.21,.19,.41,.38,.5,.55,.3,.5,.65,1.65,.71,2.23,.04,.4-.1,1.19-.16,1.59-.02,.14-.05,.35-.08,.56-.02,.11-.04,.22-.06,.33,0,.02,0,.04-.01,.06-.02,.08-.04,.16-.06,.24,0,.01,0,.03-.01,.04,0,.01,0,.03-.01,.04,0,.03-.02,.05-.03,.08-.06,.17-.32,.45-.37,.62-.06,.18-.09,.58-.05,.76,.04,.19,.23,.54,.35,.69,.1,.12,.4,.25,.47,.39,.11,.21,.08,.71,.1,.94,.03,.29,.13,.87,.11,1.16-.02,.27-.01,.9-.23,1.06-.12,.09-.46,.03-.59-.04-.28-.16-.55-.81-.73-1.07-.1-.15-.29-.36-.45-.57-.13-.17-.24-.34-.28-.48-.08-.26,0-.82,.04-1.09,.03-.18,.19-.51,.22-.69,.03-.17,.13-.55,.02-.68-.12-.15-.57-.13-.76-.14-.19,0-.56,.15-.75,.13-.19-.03-.54-.24-.71-.33-.26-.14-.74-.55-1.03-.6-.41-.07-1.31,.03-1.63,.29-.12,.1-.21,.41-.22,.56,0,.13,.09,.4,.18,.51,.12,.15,.46,.34,.64,.39,.26,.07,.81-.02,1.07,0,.18,0,.54,0,.7,.07,.16,.06,.44,.29,.53,.43,.13,.22,.22,.74,.19,.99-.04,.28-.29,.83-.49,1.03-.23,.22-.88,.36-1.18,.48-.24,.1-.77,.25-.96,.43-.25,.24-.38,.97-.61,1.22-.19,.22-.68,.58-.96,.64-.3,.07-.96-.03-1.22-.19-.14-.09-.35-.41-.37-.58-.04-.24,.13-.71,.23-.93,.13-.29,.49-.82,.69-1.07,.21-.25,.77-.62,.93-.91,.15-.27,.33-.91,.28-1.21-.04-.23-.28-.66-.48-.78-.22-.14-.77-.14-1.02-.12-.27,.02-.81,.19-1.08,.16-.34-.04-.97-.37-1.25-.57-.23-.17-.64-.58-.76-.83-.1-.22-.11-.72-.1-.96,0-.16,.02-.47,.1-.68,.02-.07,.05-.12,.09-.16,.15-.15,.63-.14,.82-.23,.19-.1,.56-.34,.65-.52,.1-.2,.05-.66,0-.87-.03-.18-.12-.55-.26-.66-.14-.11-.53-.08-.7-.13-.15-.04-.43-.24-.58-.24-.2,0-.6,.16-.73,.3-.16,.17-.14,.71-.31,.86-.18,.15-.67,.16-.9,.17-.16,0-.52,0-.63-.11-.17-.16-.2-.69-.19-.92,.01-.19,.14-.57,.24-.73,.14-.22,.7-.48,.77-.74,.06-.23-.1-.76-.27-.93-.22-.2-.86-.27-1.15-.24-.23,.03-.68,.23-.82,.41-.14,.17-.07,.69-.2,.87-.19,.25-.8,.53-1.11,.57-.24,.03-.75-.04-.93-.18-.21-.16-.34-.7-.45-.93-.06-.13-.13-.32-.2-.52-.21,.13-.49,.29-.63,.34-.3,.1-.95,.16-1.28,.17-.14,0-.41-.01-.55-.02-.24,0-.7-.02-.94-.03-.23,0-.7,.05-.92-.03-.04-.02-.13-.04-.22-.07l-.95-.02s-.02-.04-.02-.07c-.1-.27-.18-.5-.17-.7,.03-.62,.65-1.01,1.07-1.01,.58,0,.6-.01,.72-.1,.1-.07,.32-.45,.37-.64,0-.02,0-.08,0-.23-.24-.06-.51-.1-.66-.16-.13-.06-.37-.24-.52-.28-.19-.05-.6-.08-.79-.03-.2,.06-.52,.34-.67,.48-.13,.11-.32,.44-.48,.51-.22,.09-.71,.06-.94,.01-.28-.06-.81-.31-1.03-.49-.19-.16-.39-.66-.58-.83-.15-.13-.5-.3-.69-.35-.15-.04-.48,.05-.61-.02-.11-.06-.27-.29-.31-.4-.08-.18-.14-.59-.1-.79,.03-.15,.23-.39,.28-.54,.08-.22,.19-.68,.21-.91,.01-.16-.02-.5-.05-.75-.5-.05-.97-.11-1.31-.17-.71-.12-2.1-.52-2.77-.76-.84-.3-2.51-.97-3.28-1.42-.68-.4-1.82-1.52-2.5-1.92-.76-.44-2.39-1.12-3.22-1.39-.15-.05-.33-.1-.53-.16-1.01-.28-2.51-.59-3.32-.73-.68-.11-2.05-.25-2.73-.3-.47-.03-1.4-.08-1.87-.03-.34,.03-1.03,.13-1.32,.3-.19,.11-.5,.45-.58,.65-.05,.12-.08,.41-.02,.52,.12,.21,.62,.36,.83,.47,.29,.15,.86,.47,1.18,.53,.32,.06,.99-.07,1.32-.07,.33,0,.99-.03,1.31,.04,.26,.07,.78,.29,.98,.47,.2,.19,.49,.68,.55,.95,.06,.27,.05,.86-.07,1.1-.09,.18-.41,.48-.6,.53-.38,.11-1.24-.05-1.57-.29-.15-.11-.2-.55-.36-.65-.21-.14-.77-.21-.99-.09-.11,.06-.25,.33-.25,.46,0,.28,.53,.68,.58,.95,.04,.23-.05,.72-.18,.93-.1,.16-.52,.3-.6,.47-.1,.2,0,.66,0,.87,0,.18,.09,.59-.05,.7-.16,.12-.6-.06-.78-.14-.21-.09-.64-.34-.74-.55-.11-.22,.19-.8,.03-.99-.14-.18-.69-.23-.9-.15-.12,.05-.3,.27-.33,.4-.07,.23,.2,.73,.14,.97-.07,.32-.46,.91-.74,1.08-.3,.19-1.06,.24-1.41,.18-.34-.05-.94-.47-1.26-.6-.31-.12-.94-.4-1.27-.36-.3,.04-.82,.41-1.04,.61-.2,.18-.42,.7-.64,.85-.22,.15-.76,.28-1.03,.28-.19,0-.58-.11-.75-.2-.27-.14-.65-.68-.94-.76-.27-.08-.88-.02-1.11,.14-.13,.09-.27,.41-.31,.57-.07,.25,0,.79-.04,1.05-.04,.37,.04,1.26-.28,1.45-.18,.11-.64-.13-.81-.26-.17-.14-.23-.72-.44-.74-.17-.02-.3,.44-.46,.51-.19,.09-.67,.11-.85,0-.21-.13-.27-.68-.44-.86-.17-.18-.61-.51-.86-.52-.21-.01-.54,.32-.74,.35-.19,.03-.64,.04-.75-.11-.24-.32,.11-1.2,.2-1.6,.06-.23,.15-.73,.32-.89,.3-.29,1.17-.53,1.59-.53,.26,0,.73,.28,.98,.33,.47,.08,1.43,.16,1.89,.06,.31-.06,.9-.36,1.16-.54,.37-.26,.9-1.03,1.27-1.3,.34-.25,1.09-.62,1.48-.77,.37-.13,1.16-.2,1.53-.33,.56-.2,1.64-.7,2.11-1.06,.24-.19,.54-.76,.79-.93,.27-.18,.95-.28,1.24-.42,.22-.11,.69-.32,.81-.53,.11-.19,.17-.71,.03-.87-.26-.29-1.18-.19-1.57-.14-.43,.06-1.24,.43-1.65,.58-.54,.21-1.59,.69-2.13,.89-.84,.3-2.59,.7-3.42,1.02-.55,.21-1.63,.73-2.14,1.03-.48,.29-1.33,1.04-1.82,1.31-.31,.17-.99,.39-1.33,.51-.35,.12-1.08,.25-1.41,.42-.27,.14-.7,.62-.99,.72-.21,.08-.67,.14-.88,.06-.34-.14-.82-.78-.98-1.11-.14-.28,0-1-.22-1.23-.17-.19-.73-.24-.98-.27-.31-.03-1-.1-1.26,.07-.08,.05-.14,.16-.19,.29l.18,.17c.19,.14,.44,.34,.58,.45,.19,.16,.31,.26,.38,.34,.11,.11,.23,.26,.36,.42,.11,.14,.27,.34,.35,.4,.03,.02,.15,.11,.33,.21,.03,.02,.15,.06,.22,.09,.28,.11,.6,.23,.8,.47,.28,.33,.4,.87,.38,1.18-.01,.2-.13,.59-.19,.78-.02,.09-.13,.25-.11,.34,0,.05,.08,.15,.12,.18,.04,.04,.16,.06,.21,.08,.2,.1,.63,.29,.76,.47,.11,.15,.15,.55,.18,.73,0,.03,0,.08,0,.1,.02,.04,.08,.09,.12,.11,.1,.05,.33,.13,.44,.1,.01,0,.02-.03,.03-.04,.1-.13,.27-.34,.5-.43,.32-.13,.89-.11,1.2,.04,.33,.15,.74,.61,.81,.91l15.67,.59-15.64-.39-.03-.19-.55,.18h-.31s.02,.1,.02,.1l-9.56,3.12c.04-.2,.14-.4,.23-.6,.05-.1,.12-.25,.13-.3,0-.05,0-.21,0-.32,0-.25,0-.55,.06-.72,.05-.15,.22-.4,.3-.54,.03-.05,.11-.14,.13-.2,.03-.08,.1-.27,.07-.36-.01-.05-.1-.14-.15-.16-.04-.02-.14-.03-.19-.01-.01,0-.03,.03-.04,.04-.12,.13-.38,.39-.55,.45-.34,.12-1.17-.04-1.45-.18-.24-.12-.56-.47-.67-.68-.09-.16-.12-.54-.24-.67-.12-.13-.49-.2-.62-.32-.19-.18-.48-.66-.52-.92-.04-.24,.12-.71,.19-.94,.02-.09,.11-.25,.11-.34,0-.1-.03-.31-.09-.39-.05-.06-.23-.1-.31-.13-.1-.04-.27-.11-.39-.17-.17-.1-.4-.23-.53-.35-.16-.14-.33-.35-.5-.56-.1-.13-.21-.26-.27-.32-.02-.02-.09-.09-.3-.26-.12-.1-.38-.3-.55-.43l-.09-.08c-.13,.12-.25,.24-.33,.33-.22,.27-.72,.81-.8,1.15-.07,.31,.13,.95,.22,1.26,.08,.29,.43,.82,.44,1.12,.03,.48-.32,1.4-.5,1.85-.16,.41-.5,1.29-.84,1.57-.37,.3-1.35,.44-1.81,.54-.34,.07-1.04,.01-1.36,.14-.36,.15-.87,.8-1.23,.96-.41,.19-1.34,.42-1.79,.35-.15-.02-.41-.12-.59-.25-.08-.06-.14-.12-.17-.18-.14-.36,.47-1.09,.47-1.48,0-.25-.11-.8-.3-.96-.36-.29-1.38-.28-1.83-.21-.31,.05-.9,.33-1.13,.54-.29,.26-.59,.99-.8,1.31-.22,.34-.65,1.02-.92,1.32-.32,.36-1.16,.87-1.46,1.25-.17,.21-.32,.75-.5,.94-.17,.19-.6,.54-.85,.55-.24,0-.66-.29-.83-.45-.15-.14-.27-.6-.46-.67-.18-.07-.64,.01-.76,.16-.17,.2-.05,.8-.04,1.06,0,.19-.02,.6,.09,.76,.1,.14,.51,.18,.6,.33,.11,.18,.11,.67,0,.86-.13,.22-.64,.46-.89,.52-.35,.09-1.09-.11-1.46-.06-.2,.03-.59,.16-.78,.24-.38,.16-1.07,.66-1.46,.81-.26,.1-.84,.14-1.1,.25-.4,.17-1.16,.65-1.45,.97-.23,.25-.44,.92-.62,1.2-.21,.33-.71,.93-.98,1.22-.4,.43-1.17,1.2-1.76,1.68-.13,.11-.25,.2-.36,.27-.52,.35-1.77,.68-2.28,1.04-.47,.34-1.16,1.3-1.6,1.68-.35,.3-1.14,.76-1.49,1.04-.59,.46-1.57,1.62-2.24,1.95-.89,.43-2.92,.53-3.88,.77-.57,.14-1.67,.57-2.24,.68-.56,.11-1.71,.23-2.28,.21-.7-.02-2.08-.38-2.79-.44-.44-.04-1.34,.04-1.78-.06-.52-.12-1.52-.55-1.96-.85-.31-.21-.72-.87-1.04-1.05-.45-.26-1.57-.24-1.99-.53-.27-.19-.66-.76-.75-1.07-.12-.39,.28-1.29,.06-1.63-.17-.27-.87-.42-1.18-.48-.34-.06-1.03,.08-1.37,.04-.45-.06-1.38-.22-1.73-.5-.19-.15-.29-.68-.47-.83-.3-.26-1.1-.58-1.5-.58-.23,0-.62,.27-.83,.35-.17,.07-.52,.23-.71,.24-.29,0-.88-.14-1.13-.3-.16-.1-.39-.4-.48-.57-.09-.18-.05-.63-.18-.79-.17-.21-.71-.44-.98-.47-.25-.03-.74,.2-1,.23-.32,.03-.97,.07-1.28-.01-.32-.09-.89-.46-1.14-.68-.29-.25-.65-.98-.98-1.17-.42-.24-1.43-.26-1.92-.3-.49-.04-1.51-.18-1.98-.04-.4,.12-1.03,.73-1.38,.97-.31,.21-.93,.64-1.25,.83-.27,.15-.82,.49-1.13,.54-.46,.08-1.4-.14-1.86-.24-.93-.21-2.69-1.08-3.64-1.17-.65-.06-1.97,.17-2.61,.32-.38,.09-1.09,.47-1.48,.53-.55,.09-1.69-.01-2.24-.08-.38-.04-1.17-.1-1.51-.28-.3-.16-.77-.71-.96-.99-.28-.42-.55-1.41-.78-1.86-.2-.39-.64-1.15-.91-1.49-.2-.25-.62-.8-.93-.88-.27-.07-.86,.12-1.09,.28-.19,.13-.3,.64-.49,.77-.21,.14-.76,.25-1,.17-.29-.09-.57-.76-.85-.87-.26-.11-.9-.13-1.14,.02-.2,.12-.27,.66-.44,.83-.2,.21-.74,.46-1.01,.58-.28,.12-.85,.34-1.15,.34-.32,0-.94-.22-1.21-.39-.22-.14-.5-.63-.73-.75-.47-.26-1.58-.36-2.12-.42-.62-.07-1.86-.11-2.48-.08-.41,.02-1.25,.32-1.64,.18-.42-.15-.93-.95-1.21-1.29-.26-.32-.64-1.07-.95-1.34-.17-.15-.65-.27-.8-.44-.23-.24-.53-.88-.54-1.21-.02-.36,.46-1.02,.46-1.38,0-.26-.15-.83-.38-.97-.33-.21-1.21-.07-1.55,.12-.23,.13-.4,.7-.61,.85-.31,.21-1.07,.35-1.44,.39-.34,.04-1.07,.09-1.37-.08-.24-.13-.44-.71-.64-.9-.3-.27-1.02-.67-1.4-.78-.3-.08-.95-.1-1.25-.01-.21,.06-.54,.39-.74,.47-.19,.07-.62,.17-.82,.12-.32-.09-.83-.57-1.05-.82-.25-.27-.54-.96-.77-1.25-.23-.28-.76-.77-1.05-1-.19-.15-.57-.47-.8-.52-.36-.09-1.18-.05-1.49,.15-.19,.13-.28,.65-.47,.8-.28,.23-1.03,.4-1.39,.45-.56,.07-1.69,.01-2.24-.1-.29-.06-.86-.27-1.09-.45-.36-.27-.75-1.13-1.09-1.43-.35-.32-1.17-.84-1.63-.99-.37-.12-1.17-.22-1.54-.11-.24,.07-.59,.47-.81,.58-.32,.16-1.01,.37-1.36,.45-.39,.09-1.19,.26-1.58,.21-.61-.08-1.67-.83-2.27-.95-.21-.04-.67-.07-.88,0-.23,.08-.53,.5-.75,.59-.23,.09-.73,.16-.97,.08-.18-.06-.46-.35-.6-.49-.24-.24-.54-.92-.84-1.08-.31-.16-1.03-.05-1.37-.05-.7,0-2.09,.21-2.78,.14-.55-.06-1.6-.47-2.14-.57-.49-.09-1.49-.11-1.98-.21-.52-.11-1.57-.35-2.02-.62-.3-.18-.73-.76-.99-.99-.26-.24-.77-.74-1.08-.91-.27-.15-.87-.37-1.18-.36-.27,0-.78,.25-1.03,.34-.37,.13-1.08,.55-1.48,.56-.46,0-1.3-.42-1.73-.58-.55-.21-1.61-.79-2.19-.92-.35-.08-1.07-.03-1.43-.05-.81-.05-2.44-.47-3.23-.28-.44,.1-1.15,.72-1.55,.94-.53,.29-1.61,.86-2.17,1.09-.98,.41-2.99,1.1-4.01,1.35-1.15,.27-3.49,.57-4.66,.69-.93,.09-2.81,.15-3.74,.19-.81,.04-2.45,.29-3.24,.12-.6-.13-1.69-.74-2.21-1.06-.4-.25-1.19-.8-1.51-1.16-.22-.25-.47-.91-.69-1.16-.16-.18-.62-.39-.77-.58-.17-.2-.3-.74-.46-.95-.1-.13-.51-.42-.51-.42L4.28,19.88l1.33,21.01,5.32,6.64L.25,66.45l-.25,7.21,4.76,12.86-1.03,11.44,9.99,13.44,1.25,53.17,6.01,254.72,248.62-.06h10.04s11.51,0,11.51,0v-.05s0,.05,0,.05h19.76s56.52-.02,56.52-.02l2.13,3.1,14.81,7.14,16.72-1.22,1.82-18.76,21.79-7.47,8.4-22.66,10.03,1.04,16.93-13.21s-1.9-.96-2.49-1.35c-.38-.25-1.1-.8-1.42-1.13-.26-.26-.76-.82-.89-1.17-.2-.52-.24-1.67-.19-2.22,.04-.41,.41-1.18,.46-1.59,.05-.43,.05-1.31-.09-1.72-.15-.45-.79-1.2-1.08-1.58-.24-.3-.72-.92-1.04-1.14-.18-.12-.64-.18-.81-.32-.25-.21-.61-.81-.69-1.13-.09-.34,0-1.05,.05-1.4,.05-.4,.31-1.19,.32-1.59,0-.33-.06-1.02-.22-1.32-.14-.26-.69-.58-.88-.82-.19-.23-.53-.73-.61-1.01-.08-.3-.03-.95,.04-1.25,.05-.2,.2-.61,.35-.75,.21-.19,.89-.18,1.06-.4,.13-.17,.16-.64,.09-.84-.08-.22-.55-.44-.68-.63-.19-.29-.44-.98-.42-1.32,.01-.21,.28-.55,.35-.75,.11-.3,.35-.92,.33-1.24-.01-.25-.21-.75-.38-.94-.22-.24-.9-.41-1.15-.62-.36-.3-.95-1.05-1.15-1.47-.25-.52-.44-1.69-.54-2.26-.05-.32-.05-.97-.1-1.28-.06-.36-.32-1.05-.36-1.41-.03-.26-.08-.81,.04-1.05,.1-.21,.51-.5,.72-.62,.24-.12,.77-.31,1.03-.28,.25,.03,.76,.25,.89,.47,.12,.21,.09,.77-.03,.99-.1,.17-.56,.24-.66,.41-.1,.19-.08,.65,0,.84,.07,.17,.34,.44,.51,.51,.18,.08,.61,.1,.79,.03,.19-.08,.48-.4,.55-.59,.07-.21-.17-.69-.06-.88,.07-.12,.36-.23,.5-.25,.25-.02,.74,.16,.95,.29,.25,.16,.55,.75,.82,.87,.24,.11,.82,.16,1.08,.07,.34-.13,.76-.79,1.06-1.01,.28-.21,.89-.59,1.22-.72,.36-.13,1.13-.37,1.5-.27,.31,.08,.86,.52,.96,.82,.09,.27-.25,.84-.24,1.13,0,.22,.09,.68,.23,.85,.12,.14,.5,.31,.69,.31,.2,0,.6-.16,.71-.33,.19-.29,.05-1.05,.05-1.4Z"/>
          <path class="cls-3" d="M299.5,28.67c.05,.32,.28,.92,.34,1.23,.06,.35,.09,1.07,.1,1.43,0,.27-.03,.82-.04,1.09-.01,.35-.05,1.06-.05,1.41,0,.27,0,.81,.04,1.08,.03,.21,.18,.62,.21,.84,.04,.38-.05,1.16-.07,1.54-.03,.45-.17,1.36-.12,1.82,.02,.21,.15,.6,.24,.79,.08,.19,.29,.55,.43,.71,.14,.17,.53,.4,.65,.58,.14,.2,.28,.68,.33,.91,.09,.38,.16,1.17,.15,1.56,0,.27-.15,.8-.18,1.07-.05,.42-.11,1.25-.11,1.67,0,.35,.16,1.06,.07,1.4-.07,.25-.41,.67-.56,.88-.1,.14-.35,.39-.41,.55-.07,.18-.12,.58-.1,.77,.02,.2,.15,.6,.28,.75,.12,.15,.52,.29,.66,.43,.16,.17,.39,.6,.44,.83,.07,.32-.1,1-.04,1.32,.04,.27,.31,.75,.37,1.02,.08,.33,.08,1.01,.13,1.34,.01,.11,.04,.27,.07,.43,.11,0,.22,0,.28,0,.13,0,.37-.07,.5-.06,.24,.03,.69,.23,.89,.37,.2,.13,.54,.48,.69,.66,.13,.16,.29,.54,.41,.7,.14,.18,.51,.46,.63,.65,.09,.15,.2,.49,.24,.66,.03,.15,.03,.46,.05,.61,.02,.17,.12,.5,.14,.67,0,.08,0,.25-.01,.33-.02,.1-.13,.29-.17,.39-.01,.02-.03,.06-.05,.1,.15,.13,.31,.26,.43,.32,.2,.11,.64,.21,.87,.25,.23,.04,.7,.04,.93,.09,.21,.04,.64,.16,.84,.25,.26,.12,.73,.46,.96,.63,.27,.21,.8,.64,1.02,.91,.13,.16,.29,.55,.41,.71,.12,.15,.45,.35,.55,.51,.14,.22,.26,.73,.3,.99,.04,.25,.03,.77,.04,1.02,.01,.26,.04,.77,.07,1.02,.03,.24,.15,.7,.16,.94,.01,.3-.08,.9-.1,1.2-.01,.25-.02,.75-.03,1-.02,.39-.07,1.18-.14,1.57-.06,.34-.33,.97-.37,1.31-.05,.39,.02,1.18,.06,1.57,.03,.28,.12,.85,.2,1.13,.04,.13,.11,.38,.19,.52,0,0,0,0,0,0,.01,.02,.03,.05,.04,.07,.13,.17,.54,.34,.68,.5,.11,.12,.18,.48,.31,.58,.15,.12,.59,.09,.76,.2,.15,.09,.39,.37,.44,.54,.05,.17-.03,.53-.07,.7-.03,.14-.17,.4-.19,.54-.06,.33-.13,1.01-.05,1.33,.05,.18,.25,.49,.37,.62,.12,.13,.46,.26,.58,.39,.14,.15,.27,.55,.41,.69,.16,.16,.59,.31,.75,.46,.22,.2,.61,.68,.71,.96,.12,.32,.08,1.02,.09,1.36,0,.37,0,1.12-.05,1.48-.03,.25-.17,.75-.21,1-.06,.39-.2,1.17-.16,1.57,.02,.21,.14,.61,.24,.79,.1,.19,.37,.56,.57,.65,.26,.12,.91-.12,1.16,.04,.17,.11,.26,.53,.35,.71,.1,.2,.32,.5,.48,.79,.12,.2,.21,.39,.24,.54,.07,.41-.17,1.22-.25,1.63-.05,.26-.24,.76-.25,1.02-.02,.31,.06,.95,.15,1.25,.07,.22,.27,.66,.45,.8,.16,.13,.58,.25,.78,.24,.18,0,.52-.12,.66-.22,.16-.11,.31-.52,.48-.59,.23-.11,.76-.03,1.01,.03,.2,.05,.58,.24,.75,.35,.18,.11,.59,.33,.66,.52,.09,.24-.11,.75-.16,1-.05,.26-.22,.77-.25,1.04-.06,.43-.1,1.31-.06,1.74,.02,.19,.07,.58,.17,.75,.09,.15,.36,.42,.53,.48,.18,.05,.56-.13,.75-.11,.19,.02,.63,.11,.71,.29,.09,.2-.29,.62-.29,.84,0,.22,.12,.67,.26,.84,.15,.2,.63,.41,.86,.51,.19,.09,.6,.2,.8,.27,.28,.1,.84,.28,1.1,.43,.18,.1,.5,.35,.64,.5,.2,.21,.5,.72,.67,.96,.14,.2,.39,.64,.56,.81,.18,.17,.6,.45,.84,.53,.15,.06,.5,.03,.65,.09,.29,.1,.81,.46,1.07,.63,.22,.14,.68,.42,.85,.62,.16,.19,.31,.7,.45,.91,.15,.24,.47,.7,.69,.88,.29,.23,.99,.54,1.36,.64,.29,.07,.92-.03,1.2,.06,.21,.07,.59,.33,.75,.48,.14,.14,.29,.52,.41,.67,.1,.12,.38,.3,.47,.43,.09,.15,.17,.49,.2,.66,.04,.35-.04,1.06-.05,1.42-.01,.4-.06,1.21-.05,1.61,0,.51,.03,1.54,.08,2.06,.05,.47,.21,1.41,.33,1.87,.11,.42,.41,1.23,.58,1.64,.16,.4,.57,1.17,.73,1.58,.11,.26,.37,.78,.4,1.06,.03,.23-.02,.71-.1,.94-.08,.23-.46,.58-.53,.81-.09,.27-.12,.86-.04,1.13,.07,.24,.5,.59,.58,.83,.12,.34,.1,1.08,.08,1.44-.01,.25-.22,.75-.16,1,.04,.21,.28,.59,.46,.71,.19,.13,.69,.27,.91,.18,.15-.06,.24-.46,.39-.51,.19-.06,.59,.12,.76,.22,.18,.11,.45,.45,.59,.61,.24,.27,.68,.84,.9,1.12,.31,.4,.87,1.23,1.19,1.61,.21,.26,.67,.74,.91,.97,.18,.16,.54,.48,.74,.62,.19,.13,.65,.26,.82,.42,.18,.16,.41,.6,.5,.82,.14,.35,.18,1.13,.34,1.47,.13,.27,.53,.72,.73,.94,.28,.3,.86,.88,1.21,1.09,.38,.22,1.27,.37,1.67,.56,.55,.26,1.5,1.02,2.03,1.31,.45,.25,1.5,.48,1.85,.85,.26,.27,.39,1.06,.54,1.39,.11,.24,.32,.72,.49,.91,.18,.19,.65,.45,.88,.58,.22,.12,.7,.26,.91,.4,.15,.1,.43,.34,.51,.5,.09,.19,.08,.62,.06,.83-.03,.26-.28,.74-.27,1,0,.23,.12,.69,.28,.86,.14,.16,.58,.26,.78,.33,.21,.08,.67,.13,.84,.27,.21,.17,.44,.68,.54,.94,.12,.32,.11,1.02,.24,1.34,.12,.3,.48,.84,.71,1.07,.15,.15,.49,.41,.68,.48,.29,.11,.94,.1,1.24,.17,.29,.07,.91,.21,1.15,.39,.25,.19,.54,.76,.71,1.03,.21,.33,.54,1.04,.76,1.36,.23,.34,.69,1.06,1.05,1.26,.19,.11,.65,.14,.87,.14,.23,0,.67-.19,.9-.17,.3,.03,.94,.21,1.14,.43,.16,.17,.13,.69,.25,.88,.13,.19,.51,.49,.72,.59,.23,.11,.76,.12,1,.19,.39,.11,1.15,.38,1.5,.58,.43,.24,1.2,.86,1.58,1.17,.29,.24,.81,.79,1.09,1.04,.23,.21,.65,.69,.94,.8,.26,.11,.85,.05,1.14,.05,.21,0,.63,.02,.83-.02,.19-.04,.53-.2,.71-.27,.18-.07,.54-.24,.74-.25,.21-.01,.63,.08,.83,.16,.15,.06,.43,.24,.53,.37,.14,.18,.26,.63,.35,.84,.1,.21,.27,.66,.42,.84,.19,.22,.66,.61,.94,.7,.17,.06,.56,.1,.73,.02,.17-.07,.43-.39,.5-.57,.06-.14,.07-.47,.02-.62-.04-.14-.23-.4-.35-.49-.09-.07-.31-.16-.42-.19-.15-.04-.5,.01-.61-.09-.11-.11-.16-.46-.13-.62,.03-.16,.21-.47,.35-.54,.13-.07,.48,.12,.6,.02,.16-.14,.03-.64,.09-.84,.05-.17,.2-.52,.33-.64,.15-.15,.59-.24,.76-.37,.17-.13,.46-.47,.55-.67,.09-.21,.05-.69,.1-.91,.05-.2,.15-.63,.29-.79,.14-.16,.55-.31,.73-.43,.17-.11,.52-.34,.67-.49,.23-.22,.64-.74,.81-1.02,.18-.3,.49-.94,.53-1.29,.02-.17-.03-.54-.14-.67-.1-.12-.44-.14-.56-.24-.17-.13-.48-.47-.52-.67-.06-.29,.15-.89,.32-1.12,.12-.17,.53-.32,.66-.47,.13-.16,.32-.55,.35-.76,.04-.31-.1-.94-.18-1.24-.11-.4-.42-1.16-.6-1.53-.11-.22-.4-.63-.51-.85-.17-.33-.51-1-.58-1.36-.07-.34,.08-1.05,.02-1.4-.06-.38-.34-1.1-.54-1.43-.11-.19-.45-.49-.56-.69-.14-.26-.31-.82-.37-1.1-.08-.36-.25-1.11-.2-1.48,.03-.19,.21-.55,.33-.7,.09-.11,.34-.3,.48-.35,.23-.07,.71,.07,.95,.03,.15-.02,.46-.1,.56-.21,.11-.12,.22-.48,.18-.65-.03-.15-.26-.39-.38-.48-.09-.07-.36-.08-.43-.17-.09-.13-.03-.47-.02-.63,.01-.26,.15-.78,.15-1.04,0-.24-.12-.72-.14-.97-.04-.34-.13-1.03-.1-1.37,.02-.22,.05-.69,.2-.84,.16-.16,.65-.24,.87-.2,.15,.03,.45,.2,.51,.34,.08,.18-.15,.6-.1,.8,.05,.18,.28,.51,.45,.6,.18,.09,.63,.11,.82,.03,.17-.07,.4-.39,.49-.55,.12-.22,.24-.73,.25-.98,.01-.23-.05-.69-.13-.91-.07-.18-.3-.51-.44-.64-.16-.15-.57-.32-.74-.46-.19-.16-.6-.5-.69-.74-.1-.27-.02-.86,.04-1.13,.03-.16,.1-.53,.24-.62,.17-.11,.62,.08,.82,.03,.17-.05,.5-.22,.6-.37,.12-.19,.18-.67,.1-.88-.03-.08-.19-.15-.23-.23-.09-.2-.14-.66-.07-.86,.1-.3,.71-.67,.85-.96,.07-.14,.12-.45,.11-.61-.01-.22-.34-.63-.26-.84,.08-.2,.54-.36,.74-.41,.17-.04,.56,.11,.71,.02,.21-.11,.47-.58,.49-.81,.02-.21-.18-.6-.29-.78-.12-.19-.47-.47-.6-.65-.19-.25-.54-.78-.62-1.08-.06-.24-.06-.76,.03-.99,.09-.21,.43-.55,.63-.65,.2-.1,.68-.02,.88-.12,.16-.08,.4-.36,.5-.51,.15-.24,.38-.78,.39-1.06,0-.29-.18-.85-.31-1.1-.1-.18-.45-.45-.53-.64-.12-.27-.24-.87-.19-1.16,.04-.23,.29-.64,.44-.81,.16-.19,.62-.44,.81-.61,.17-.15,.53-.43,.62-.63,.11-.25,.11-.81,.07-1.07-.06-.36-.35-1.04-.57-1.33-.21-.28-.89-.59-1.09-.87-.18-.25-.46-.83-.44-1.14,.01-.3,.5-.78,.53-1.07,.03-.28-.31-.81-.25-1.09,.08-.38,.64-.97,.92-1.24,.25-.24,.91-.51,1.16-.75,.33-.3,.95-.98,1.1-1.4,.18-.52,.14-1.68,.03-2.23-.07-.32-.5-.87-.53-1.2-.03-.3,.09-.92,.26-1.17,.12-.18,.56-.35,.72-.5,.23-.23,.56-.79,.74-1.07,.24-.38,.65-1.19,.93-1.54,.27-.34,.96-.91,1.27-1.22,.26-.26,1-1.06,1-1.06,0,0-.77-2.65-1.1-3.79-.02-.07-.04-.14-.06-.2-.26-.89-.83-2.66-1.08-3.56-.12-.43-.3-1.31-.44-1.73-.2-.6-.7-1.76-.97-2.33-.44-.92-1.5-2.69-1.98-3.59-.63-1.18-1.81-3.58-2.43-4.77-.89-1.7-3.62-6.76-3.62-6.76l-5.64-10.82v-4.31s-2.39,.03-2.39,.03l-.02-5.33-17.63-34.87s-1.82,1.61-2.44,2.13c-.78,.65-2.35,1.95-3.18,2.54-.91,.64-2.77,1.89-3.79,2.35-.71,.32-2.24,.63-2.98,.89-.43,.15-1.27,.49-1.69,.67-.7,.31-2.06,1.05-2.76,1.36-.46,.21-1.38,.61-1.86,.75-.29,.09-.88,.23-1.18,.25-.28,.02-.86,0-1.14-.07-.15-.04-.43-.19-.58-.25-.2-.09-.58-.29-.77-.38-.45-.2-1.36-.54-1.81-.73-.42-.18-1.25-.56-1.67-.76-.25-.12-.75-.37-1.01-.47-.27-.1-.81-.35-1.1-.33-.17,.01-.44,.24-.59,.3-.19,.08-.65,.08-.8,.23-.09,.09-.15,.37-.1,.49,.07,.2,.55,.36,.75,.44,.25,.1,.74,.35,.98,.46,.44,.21,1.3,.68,1.77,.82,.49,.15,1.51,.23,2,.36,.33,.08,1.06,.18,1.3,.42,.16,.17,.37,.7,.23,.88-.14,.2-.73,0-.96,.05-.29,.07-.8,.42-1.1,.46-.46,.05-1.37-.25-1.83-.3-.35-.04-1.07-.14-1.43-.08-.22,.04-.7,.16-.83,.35-.12,.17-.04,.61-.03,.81,.01,.27,.24,.81,.14,1.05-.06,.14-.35,.34-.51,.36-.11,.02-.36-.05-.43-.13-.1-.11-.03-.47-.13-.59-.19-.24-.83-.4-1.12-.5-.2-.07-.6-.2-.81-.23-.25-.04-.79-.11-1.02,0-.29,.13-.54,.81-.82,.96-.3,.16-1.07-.01-1.35,.19-.16,.12-.18,.63-.35,.74-.25,.18-.9,.14-1.2,.13-.32,0-1,.03-1.25-.16-.1-.08-.19-.35-.22-.47-.06-.28-.08-.86-.02-1.14,.05-.23,.34-.64,.44-.86,.11-.25,.36-.76,.41-1.03,.06-.29,.2-.92,.04-1.16-.15-.21-.72-.32-.98-.35-.18-.02-.53,.04-.7,.09-.2,.06-.59,.25-.77,.35-.24,.14-.67,.52-.93,.64-.21,.1-.66,.19-.88,.26-.28,.09-.93,.15-1.12,.37-.15,.17-.26,.7-.15,.9,.09,.17,.52,.3,.72,.32,.2,.01,.61-.09,.77-.21,.14-.11,.21-.54,.37-.63,.24-.13,.83-.03,1.08,.07,.17,.07,.49,.29,.57,.46,.09,.18,.04,.59,0,.79-.04,.22-.16,.68-.32,.83-.16,.14-.62,.17-.83,.23-.21,.07-.69,.15-.83,.32-.15,.18,0,.75-.18,.9-.21,.17-.81-.02-1.08-.04-.31-.02-1.02,.11-1.25-.1-.11-.09-.12-.42-.1-.56,.03-.27,.5-.71,.44-.97-.05-.2-.43-.47-.62-.52-.25-.06-.84,.06-1,.26-.1,.12,.09,.51-.02,.61-.18,.17-.74,0-.99,0-.24,0-.73-.08-.96-.03-.44,.09-1.25,.53-1.66,.73-.3,.15-.88,.5-1.19,.63-.23,.1-.7,.28-.94,.32-.29,.04-.92,.08-1.16-.07-.16-.1-.44-.47-.39-.65,.08-.27,.73-.41,.98-.52,.31-.13,.98-.26,1.27-.42,.22-.12,.56-.49,.78-.61,.25-.14,.81-.25,1.06-.37,.32-.16,.89-.61,1.19-.8,.36-.23,1.08-.68,1.43-.91,.26-.17,.75-.56,1.02-.72,.44-.27,1.37-.74,1.84-.96,.37-.18,1.14-.47,1.51-.65,.34-.17,1.02-.53,1.34-.74,.41-.27,1.1-1.05,1.56-1.23,.44-.17,1.4-.13,1.87-.14,.66-.01,1.98-.06,2.62,.09,.49,.11,1.45,.48,1.93,.66,.32,.12,.82,.24,1.08,.11,.17-.08,.42-.39,.49-.57,.06-.17,.1-.58,0-.73-.17-.24-.81-.33-1.1-.42-.38-.11-1.17-.25-1.56-.34-.44-.11-1.21-.15-1.61-.17-.61-.03-1.82-.07-2.43-.1-.53-.03-1.59-.09-2.1,.12-.64,.26-1.72,1.14-2.3,1.52-.43,.29-1.3,.88-1.73,1.16-.84,.55-2.57,1.6-3.4,2.18-.49,.35-1.41,1.15-1.92,1.48-.38,.24-1.21,.61-1.6,.83-.27,.15-.78,.53-1.07,.63-.34,.12-1.07,.07-1.41,.19-.31,.11-.79,.61-1.1,.69-.42,.11-1.3,0-1.72-.1-.35-.09-.98-.47-1.32-.6-.33-.12-1.01-.27-1.34-.38-.21-.07-.65-.22-.83-.35-.32-.22-.83-.82-1.1-1.1-.24-.25-.67-.81-.94-1.02-.33-.26-1.12-.6-1.47-.84-.13-.09-.3-.21-.48-.35-.29-.22-.6-.48-.79-.63-.3-.25-.8-.89-1.16-1.03-.23-.09-.75-.14-.98-.03-.14,.06-.34,.32-.37,.47-.03,.18,.15,.54,.22,.71,.07,.18,.31,.49,.34,.68,.03,.2-.03,.55-.09,.81-.02,.07-.03,.13-.05,.19-.08,.28-.36,.81-.45,1.09-.09,.29-.25,.87-.27,1.17,0,.13,0,.29,0,.47,.02,.45,.09,.99,.14,1.3Zm1.19-1.24s0,0,0-.01c-.01-.31-.07-.9-.02-1.19,.04-.25,.29-.71,.37-.95,.07-.21,.22-.62,.22-.84,0-.19-.35-.57-.22-.71,.15-.16,.66,.13,.85,.23,.15,.08,.37,.23,.56,.39,.13,.11,.25,.23,.32,.32,.1,.14,.2,.47,.27,.62,.06,.12,.16,.38,.25,.49,.14,.17,.58,.34,.71,.52,.13,.18,.28,.62,.29,.84,.02,.23-.02,.74-.18,.91-.18,.2-.76,.31-.99,.46-.16,.1-.48,.33-.59,.49-.11,.18-.16,.61-.22,.81-.06,.19-.18,.58-.26,.76-.08,.17-.22,.54-.36,.67-.16,.16-.59,.54-.8,.45-.27-.12-.25-.85-.28-1.14-.03-.25,.03-.76,.07-1.02,.04-.26,.08-.78,.08-1.05,0-.27-.07-.8-.08-1.06Z"/>
        </g>
      </g>
      <g>
        <g>
          <path class="cls- red" d="M467.97,326.09c0-.34,.04-1.05-.07-1.37-.09-.27-.43-.74-.64-.92-.17-.15-.6-.32-.8-.41-.29-.12-.97-.19-1.18-.42-.19-.19-.19-.79-.32-1.03-.09-.18-.31-.59-.5-.63-.25-.05-.67,.36-.89,.49-.15,.09-.42,.38-.6,.39-.24,0-.69-.3-.83-.49-.18-.24-.25-.87-.25-1.17,0-.37,.4-1.08,.34-1.44-.05-.31-.37-.91-.63-1.07-.21-.12-.73,.03-.96-.03-.31-.08-.92-.36-1.15-.59-.19-.2-.36-.75-.46-1.01-.08-.19-.12-.62-.27-.77-.11-.11-.45-.2-.61-.2-.15,0-.4,.2-.53,.24-.13,.04-.39,.12-.53,.13-.21,0-.67-.02-.84-.14-.22-.16-.4-.71-.52-.95-.21-.4-.64-1.19-.82-1.6-.1-.24-.18-.79-.35-1-.19-.24-.75-.51-1.03-.65-.36-.17-1.13-.37-1.5-.52-.37-.15-1.17-.39-1.47-.66-.32-.3-.6-1.16-.82-1.54-.23-.39-.63-1.24-.97-1.55-.26-.24-.92-.54-1.26-.65-.29-.1-.92-.16-1.22-.22-.27-.05-.85-.08-1.07-.24-.29-.21-.59-.92-.74-1.25-.16-.33-.36-1.06-.54-1.39-.15-.27-.47-.83-.72-1.01-.21-.15-.76-.19-.98-.32-.2-.12-.54-.46-.65-.66-.18-.35-.2-1.17-.3-1.55-.11-.43-.32-1.31-.56-1.68-.18-.28-.73-.67-.96-.91-.19-.2-.59-.59-.7-.84-.1-.22-.22-.71-.14-.94,.08-.22,.56-.45,.69-.65,.14-.19,.36-.63,.38-.86,.03-.34-.14-1.01-.28-1.32-.16-.36-.68-.99-.95-1.28-.41-.45-1.33-1.26-1.81-1.63-.49-.38-1.63-.95-2.08-1.38-.42-.4-1.03-1.38-1.37-1.85-.41-.57-1.25-1.68-1.59-2.3-.34-.62-.83-1.96-1.08-2.63-.27-.73-.65-2.24-.98-2.94-.19-.4-.63-1.18-.94-1.49-.16-.16-.59-.35-.77-.49-.26-.21-.75-.68-.93-.96-.22-.35-.34-1.2-.59-1.53-.11-.15-.43-.37-.6-.46-.27-.15-.95-.21-1.15-.45-.24-.27-.31-1.05-.33-1.41-.02-.42,.31-1.24,.23-1.65-.07-.34-.44-.95-.69-1.19-.27-.26-1.04-.44-1.32-.69-.22-.19-.6-.67-.67-.95-.09-.38,.24-1.17,.23-1.56,0-.36-.12-1.08-.27-1.41-.13-.28-.54-.78-.79-.96-.29-.22-1.04-.35-1.35-.54-.32-.2-.91-.72-1.13-1.03-.29-.41-.64-1.36-.81-1.83-.2-.53-.48-1.65-.68-2.18-.17-.44-.56-1.32-.82-1.72-.24-.37-.88-1-1.15-1.35-.18-.23-.58-.68-.7-.96-.19-.47-.19-1.5-.31-1.99-.1-.39-.31-1.17-.53-1.5-.19-.28-.7-.75-.99-.94-.26-.17-.9-.29-1.15-.48-.18-.14-.45-.52-.56-.72-.16-.28-.33-.9-.48-1.18-.12-.22-.38-.66-.59-.81-.3-.22-1.09-.29-1.41-.48-.24-.15-.71-.52-.82-.79-.13-.32,.09-1.03,.05-1.37-.05-.46-.26-1.39-.49-1.79-.22-.37-.86-.98-1.21-1.24-.31-.23-1.08-.47-1.38-.72-.22-.18-.57-.62-.7-.87-.15-.3-.18-1-.33-1.29-.11-.22-.46-.56-.62-.75-.21-.25-.72-.68-.87-.96-.17-.31-.3-1.03-.36-1.38-.06-.35,.04-1.1-.1-1.43-.21-.48-1.05-1.15-1.41-1.53-.64-.68-1.98-1.98-2.56-2.71-.41-.51-1.17-1.59-1.47-2.18-.27-.52-.68-1.63-.86-2.18-.19-.59-.36-1.86-.65-2.41-.31-.58-1.23-1.56-1.71-2.01-.43-.4-1.43-1.02-1.88-1.4-.35-.31-1.02-.97-1.33-1.33-.2-.24-.61-.72-.72-1.02-.09-.24-.2-.78-.11-1.02,.1-.26,.72-.5,.81-.76,.11-.3-.03-.96-.13-1.26-.12-.37-.52-1.07-.8-1.34-.2-.19-.71-.46-.97-.53-.29-.08-.91,.06-1.19-.04-.3-.1-.75-.59-1.03-.73-.37-.2-1.24-.34-1.58-.58-.23-.16-.59-.62-.73-.87-.25-.45-.63-1.43-.63-1.94,0-.2,.09-.63,.23-.78,.14-.14,.6-.13,.77-.24,.2-.13,.6-.47,.64-.71,.04-.24-.23-.7-.38-.89-.11-.14-.53-.26-.6-.43-.09-.23,.05-.77,.18-.98,.13-.21,.54-.54,.78-.61,.26-.08,.84,.15,1.08,.04,.17-.08,.4-.44,.46-.62,.1-.3,.09-.96-.02-1.25-.08-.2-.35-.59-.56-.66-.22-.07-.68,.23-.91,.23-.4,0-1.23-.1-1.56-.32-.15-.1-.33-.44-.42-.6-.16-.3-.32-.99-.51-1.27-.18-.26-.75-.61-.93-.88-.18-.26-.43-.85-.49-1.15-.1-.57,.12-1.72,.08-2.3-.03-.48-.05-1.52-.34-1.9-.2-.26-.88-.43-1.18-.56-.29-.13-.9-.31-1.15-.51-.22-.17-.61-.6-.7-.87-.07-.21-.07-.7,.03-.9,.12-.25,.68-.5,.84-.73,.16-.22,.45-.73,.44-1,0-.4-.59-1.07-.71-1.45-.09-.29-.06-.92-.16-1.2-.16-.45-.63-1.34-1.02-1.61-.38-.26-1.35-.25-1.8-.35-.45-.1-1.4-.2-1.79-.44-.36-.21-.93-.86-1.13-1.23-.29-.54-.42-1.78-.56-2.38-.08-.32-.17-.99-.31-1.29-.14-.3-.54-.85-.78-1.07-.3-.28-1.11-.55-1.37-.86-.17-.21-.35-.74-.37-1-.03-.34,.3-1,.25-1.33-.05-.29-.36-.84-.58-1.04-.26-.23-.99-.35-1.26-.57-.21-.16-.53-.6-.64-.84-.15-.31-.18-1.01-.3-1.32-.13-.3-.41-.94-.69-1.1-.26-.15-.91,.04-1.19-.04-.29-.08-.83-.36-1.06-.56-.28-.24-.83-.83-.86-1.19-.02-.2,.17-.64,.35-.74,.21-.13,.72,0,.96,.03,.42,.06,1.27,.22,1.65,.41,.28,.14,.72,.63,.99,.79,.33,.19,1.07,.44,1.44,.54,.28,.08,.87,.18,1.16,.21,.22,.02,.69,.15,.87,.03,.14-.09,.22-.47,.23-.63,.01-.24-.09-.74-.23-.94-.19-.27-.81-.58-1.11-.71-.28-.12-.88-.26-1.19-.3-.28-.04-.86,.01-1.14-.04-.22-.04-.74-.1-.87-.29-.13-.19,0-.7,.03-.93,.04-.31,.32-.91,.25-1.21-.04-.17-.27-.46-.42-.54-.17-.09-.59-.11-.76-.03-.16,.08-.24,.5-.4,.57-.16,.07-.54,0-.7-.08-.19-.11-.47-.48-.56-.69-.1-.24-.2-.8-.11-1.05,.07-.18,.37-.47,.54-.53,.2-.08,.66-.07,.85,.03,.16,.08,.28,.46,.42,.57,.17,.13,.57,.29,.78,.32,.18,.02,.58,0,.73-.09,.21-.13,.46-.59,.52-.83,.1-.41,.1-1.33-.12-1.69-.26-.42-1.41-.61-1.69-1.02-.18-.28-.11-.99-.19-1.32-.05-.19-.11-.61-.27-.74-.2-.17-.81-.04-1.05-.15-.27-.12-.66-.58-.88-.79-.29-.27-.98-.75-1.13-1.12-.16-.4,.25-1.33,.06-1.72-.17-.33-.87-.74-1.23-.83-.32-.08-.99,.12-1.32,.16-.35,.04-1.05,.17-1.41,.16-.37-.01-1.16-.06-1.48-.25-.24-.15-.69-.61-.7-.9,0-.36,.75-.82,.83-1.17,.06-.28-.02-.89-.2-1.11-.16-.21-.69-.4-.95-.44-.25-.04-.75,.15-1,.14-.29,0-.88-.07-1.13-.21-.26-.15-.63-.66-.76-.93-.17-.36-.14-1.2-.33-1.55-.23-.44-.98-1.13-1.38-1.42-.28-.2-.98-.35-1.23-.57-.21-.18-.54-.66-.61-.92-.1-.37,.32-1.26,.05-1.54-.18-.19-.8,.04-1.05-.04-.3-.09-.93-.37-1.09-.65-.17-.31,.12-1.08,.05-1.42-.04-.2-.18-.63-.36-.74-.24-.16-.87,.06-1.14-.04-.27-.1-.66-.55-.88-.73-.24-.2-.77-.55-.96-.79-.31-.4-.72-1.35-.87-1.84-.17-.54-.16-1.73-.39-2.25-.24-.54-1.05-1.45-1.45-1.88-.33-.36-.99-1.12-1.44-1.3-.26-.11-.85-.05-1.14-.04-.26,.01-.77,.2-1.03,.14-.29-.07-.81-.44-1-.67-.23-.28-.48-1-.54-1.36-.09-.53,.05-1.61,.07-2.15,.02-.65,.21-1.97,.09-2.62-.09-.49-.44-1.45-.75-1.83-.22-.26-.84-.64-1.17-.74-.29-.09-.9,.01-1.19-.04-.51-.09-1.55-.31-1.96-.62-.38-.28-.82-1.14-1.06-1.55-.38-.65-1.02-2.03-1.31-2.72-.19-.47-.36-1.51-.66-1.92-.24-.32-1.03-.64-1.28-.95-.22-.27-.46-.95-.6-1.27-.12-.28-.42-.84-.43-1.15-.01-.35,.16-1.07,.4-1.33,.17-.18,.75-.17,.92-.35,.24-.27,.36-1.03,.4-1.38,.06-.61-.12-1.85-.24-2.45-.07-.34-.21-.89-.36-1.37-.08-.26-.16-.49-.24-.66-.28-.66-1.18-1.82-1.43-2.49-.23-.62-.47-1.92-.52-2.58-.04-.49,.2-1.5,.07-1.98-.15-.54-.78-1.5-1.19-1.87-.32-.29-1.1-.7-1.52-.78-.25-.05-.77,.13-1.03,.11-.4-.03-1.16-.26-1.53-.4-.24-.09-.75-.27-.92-.47-.24-.28-.28-1.08-.48-1.38-.3-.46-1.16-1.2-1.61-1.51-.27-.18-.89-.41-1.18-.56-.42-.22-1.34-.58-1.66-.93-.29-.32-.67-1.16-.7-1.6-.04-.62,.68-1.77,.69-2.39,0-.38-.25-1.13-.36-1.5-.1-.35-.4-1.02-.45-1.38-.06-.4-.13-1.26,.06-1.63,.17-.34,.88-.72,1.17-.95,.33-.26,1.01-.75,1.32-1.03,.3-.26,.86-.82,1.12-1.13,.18-.21,.59-.61,.64-.88,.08-.4-.17-1.24-.38-1.59-.21-.35-1.05-.7-1.22-1.06-.11-.23-.13-.79-.02-1.02,.12-.26,.6-.66,.87-.76,.21-.07,.66,.07,.91,.04,0,0,.01,0,.02,0,.01,0,.02,0,.03,0,.27-.07,.8-.35,.95-.58,.16-.24,.16-.84,.16-1.13,0-.43-.18-1.29-.23-1.73-.04-.4-.22-1.21-.15-1.61,.05-.32,.45-.86,.54-1.17,.14-.49,.26-1.52,.24-2.03,0-.25-.12-.75-.17-1-.06-.33-.08-1.04-.27-1.32-.19-.27-.91-.47-1.14-.71-.2-.2-.41-.77-.61-.98-.21-.22-.74-.58-1.03-.7-.14-.06-.46-.08-.61-.14-.06-.02-.12-.06-.2-.09-.07,.09-.14,.19-.16,.25-.05,.14,.09,.51-.02,.61-.16,.15-.7,.09-.9-.03-.09-.05-.2-.24-.27-.32-.06-.06-.19-.2-.26-.24-.2-.1-.66-.1-.87-.18-.17-.07-.43-.34-.6-.39-.2-.06-.66,.05-.85-.03-.16-.07-.38-.35-.59-.4-.25-.06-.78-.25-.9-.47-.08-.13,.09-.48,.02-.61-.08-.14-.44-.23-.56-.35-.07-.07-.13-.2-.19-.33-.04-.09-.08-.17-.12-.22-.08-.13-.23-.41-.35-.51-.15-.12-.55-.18-.69-.31-.2-.19-.47-.69-.54-.96-.05-.2-.04-.62,.03-.81,.07-.19,.43-.46,.52-.64,.1-.18,.1-.65,.25-.8,.1-.1,.38-.19,.61-.25-.04-.09-.07-.16-.08-.23-.16-.59-.02-1.85-.12-2.45-.07-.41-.27-1.23-.47-1.59-.18-.32-.83-.75-.98-1.08-.13-.28-.25-.92-.19-1.23,.07-.36,.63-.91,.77-1.25,.19-.47,.35-1.47,.45-1.97,.08-.43,.25-1.3,.26-1.74,.02-.71,0-2.18-.28-2.83-.14-.32-.72-.75-.9-1.05-.17-.29-.4-.93-.45-1.27-.08-.55,.15-1.66,.08-2.21-.05-.38-.4-1.09-.45-1.47-.1-.79,.08-2.38,.11-3.17,.02-.51,.1-1.53,.07-2.04-.03-.6-.3-1.77-.36-2.37-.03-.32-.06-.77-.08-1.24-.03-.63-.04-1.31,0-1.73,.03-.3,.29-.88,.3-1.18,0-.13-.02-.31-.06-.5t0,0c-.07-.34-.18-.72-.15-.96,.05-.38,.54-1.03,.57-1.41,.02-.25-.11-.75-.23-.97-.19-.36-.75-1.03-1.13-1.2-.34-.16-1.14,0-1.52-.05-.06,0-.14-.02-.21-.04l-1.48,2.48c.21,.19,.41,.38,.5,.55,.3,.5,.65,1.65,.71,2.23,.04,.4-.1,1.19-.16,1.59-.02,.14-.05,.35-.08,.56-.02,.11-.04,.22-.06,.33,0,.02,0,.04-.01,.06-.02,.08-.04,.16-.06,.24,0,.01,0,.03-.01,.04,0,.01,0,.03-.01,.04,0,.03-.02,.05-.03,.08-.06,.17-.32,.45-.37,.62-.06,.18-.09,.58-.05,.76,.04,.19,.23,.54,.35,.69,.1,.12,.4,.25,.47,.39,.11,.21,.08,.71,.1,.94,.03,.29,.13,.87,.11,1.16-.02,.27-.01,.9-.23,1.06-.12,.09-.46,.03-.59-.04-.28-.16-.55-.81-.73-1.07-.1-.15-.29-.36-.45-.57-.13-.17-.24-.34-.28-.48-.08-.26,0-.82,.04-1.09,.03-.18,.19-.51,.22-.69,.03-.17,.13-.55,.02-.68-.12-.15-.57-.13-.76-.14-.19,0-.56,.15-.75,.13-.19-.03-.54-.24-.71-.33-.26-.14-.74-.55-1.03-.6-.41-.07-1.31,.03-1.63,.29-.12,.1-.21,.41-.22,.56,0,.13,.09,.4,.18,.51,.12,.15,.46,.34,.64,.39,.26,.07,.81-.02,1.07,0,.18,0,.54,0,.7,.07,.16,.06,.44,.29,.53,.43,.13,.22,.22,.74,.19,.99-.04,.28-.29,.83-.49,1.03-.23,.22-.88,.36-1.18,.48-.24,.1-.77,.25-.96,.43-.25,.24-.38,.97-.61,1.22-.19,.22-.68,.58-.96,.64-.3,.07-.96-.03-1.22-.19-.14-.09-.35-.41-.37-.58-.04-.24,.13-.71,.23-.93,.13-.29,.49-.82,.69-1.07,.21-.25,.77-.62,.93-.91,.15-.27,.33-.91,.28-1.21-.04-.23-.28-.66-.48-.78-.22-.14-.77-.14-1.02-.12-.27,.02-.81,.19-1.08,.16-.34-.04-.97-.37-1.25-.57-.23-.17-.64-.58-.76-.83-.1-.22-.11-.72-.1-.96,0-.16,.02-.47,.1-.68,.02-.07,.05-.12,.09-.16,.15-.15,.63-.14,.82-.23,.19-.1,.56-.34,.65-.52,.1-.2,.05-.66,0-.87-.03-.18-.12-.55-.26-.66-.14-.11-.53-.08-.7-.13-.15-.04-.43-.24-.58-.24-.2,0-.6,.16-.73,.3-.16,.17-.14,.71-.31,.86-.18,.15-.67,.16-.9,.17-.16,0-.52,0-.63-.11-.17-.16-.2-.69-.19-.92,.01-.19,.14-.57,.24-.73,.14-.22,.7-.48,.77-.74,.06-.23-.1-.76-.27-.93-.22-.2-.86-.27-1.15-.24-.23,.03-.68,.23-.82,.41-.14,.17-.07,.69-.2,.87-.19,.25-.8,.53-1.11,.57-.24,.03-.75-.04-.93-.18-.21-.16-.34-.7-.45-.93-.06-.13-.13-.32-.2-.52-.21,.13-.49,.29-.63,.34-.3,.1-.95,.16-1.28,.17-.14,0-.41-.01-.55-.02-.24,0-.7-.02-.94-.03-.23,0-.7,.05-.92-.03-.04-.02-.13-.04-.22-.07l-.95-.02s-.02-.04-.02-.07c-.1-.27-.18-.5-.17-.7,.03-.62,.65-1.01,1.07-1.01,.58,0,.6-.01,.72-.1,.1-.07,.32-.45,.37-.64,0-.02,0-.08,0-.23-.24-.06-.51-.1-.66-.16-.13-.06-.37-.24-.52-.28-.19-.05-.6-.08-.79-.03-.2,.06-.52,.34-.67,.48-.13,.11-.32,.44-.48,.51-.22,.09-.71,.06-.94,.01-.28-.06-.81-.31-1.03-.49-.19-.16-.39-.66-.58-.83-.15-.13-.5-.3-.69-.35-.15-.04-.48,.05-.61-.02-.11-.06-.27-.29-.31-.4-.08-.18-.14-.59-.1-.79,.03-.15,.23-.39,.28-.54,.08-.22,.19-.68,.21-.91,.01-.16-.02-.5-.05-.75-.5-.05-.97-.11-1.31-.17-.71-.12-2.1-.52-2.77-.76-.84-.3-2.51-.97-3.28-1.42-.68-.4-1.82-1.52-2.5-1.92-.76-.44-2.39-1.12-3.22-1.39-.15-.05-.33-.1-.53-.16-1.01-.28-2.51-.59-3.32-.73-.68-.11-2.05-.25-2.73-.3-.47-.03-1.4-.08-1.87-.03-.34,.03-1.03,.13-1.32,.3-.19,.11-.5,.45-.58,.65-.05,.12-.08,.41-.02,.52,.12,.21,.62,.36,.83,.47,.29,.15,.86,.47,1.18,.53,.32,.06,.99-.07,1.32-.07,.33,0,.99-.03,1.31,.04,.26,.07,.78,.29,.98,.47,.2,.19,.49,.68,.55,.95,.06,.27,.05,.86-.07,1.1-.09,.18-.41,.48-.6,.53-.38,.11-1.24-.05-1.57-.29-.15-.11-.2-.55-.36-.65-.21-.14-.77-.21-.99-.09-.11,.06-.25,.33-.25,.46,0,.28,.53,.68,.58,.95,.04,.23-.05,.72-.18,.93-.1,.16-.52,.3-.6,.47-.1,.2,0,.66,0,.87,0,.18,.09,.59-.05,.7-.16,.12-.6-.06-.78-.14-.21-.09-.64-.34-.74-.55-.11-.22,.19-.8,.03-.99-.14-.18-.69-.23-.9-.15-.12,.05-.3,.27-.33,.4-.07,.23,.2,.73,.14,.97-.07,.32-.46,.91-.74,1.08-.3,.19-1.06,.24-1.41,.18-.34-.05-.94-.47-1.26-.6-.31-.12-.94-.4-1.27-.36-.3,.04-.82,.41-1.04,.61-.2,.18-.42,.7-.64,.85-.22,.15-.76,.28-1.03,.28-.19,0-.58-.11-.75-.2-.27-.14-.65-.68-.94-.76-.27-.08-.88-.02-1.11,.14-.13,.09-.27,.41-.31,.57-.07,.25,0,.79-.04,1.05-.04,.37,.04,1.26-.28,1.45-.18,.11-.64-.13-.81-.26-.17-.14-.23-.72-.44-.74-.17-.02-.3,.44-.46,.51-.19,.09-.67,.11-.85,0-.21-.13-.27-.68-.44-.86-.17-.18-.61-.51-.86-.52-.21-.01-.54,.32-.74,.35-.19,.03-.64,.04-.75-.11-.24-.32,.11-1.2,.2-1.6,.06-.23,.15-.73,.32-.89,.3-.29,1.17-.53,1.59-.53,.26,0,.73,.28,.98,.33,.47,.08,1.43,.16,1.89,.06,.31-.06,.9-.36,1.16-.54,.37-.26,.9-1.03,1.27-1.3,.34-.25,1.09-.62,1.48-.77,.37-.13,1.16-.2,1.53-.33,.56-.2,1.64-.7,2.11-1.06,.24-.19,.54-.76,.79-.93,.27-.18,.95-.28,1.24-.42,.22-.11,.69-.32,.81-.53,.11-.19,.17-.71,.03-.87-.26-.29-1.18-.19-1.57-.14-.43,.06-1.24,.43-1.65,.58-.54,.21-1.59,.69-2.13,.89-.84,.3-2.59,.7-3.42,1.02-.55,.21-1.63,.73-2.14,1.03-.48,.29-1.33,1.04-1.82,1.31-.31,.17-.99,.39-1.33,.51-.35,.12-1.08,.25-1.41,.42-.27,.14-.7,.62-.99,.72-.21,.08-.67,.14-.88,.06-.34-.14-.82-.78-.98-1.11-.14-.28,0-1-.22-1.23-.17-.19-.73-.24-.98-.27-.31-.03-1-.1-1.26,.07-.08,.05-.14,.16-.19,.29l.18,.17c.19,.14,.44,.34,.58,.45,.19,.16,.31,.26,.38,.34,.11,.11,.23,.26,.36,.42,.11,.14,.27,.34,.35,.4,.03,.02,.15,.11,.33,.21,.03,.02,.15,.06,.22,.09,.28,.11,.6,.23,.8,.47,.28,.33,.4,.87,.38,1.18-.01,.2-.13,.59-.19,.78-.02,.09-.13,.25-.11,.34,0,.05,.08,.15,.12,.18,.04,.04,.16,.06,.21,.08,.2,.1,.63,.29,.76,.47,.11,.15,.15,.55,.18,.73,0,.03,0,.08,0,.1,.02,.04,.08,.09,.12,.11,.1,.05,.33,.13,.44,.1,.01,0,.02-.03,.03-.04,.1-.13,.27-.34,.5-.43,.32-.13,.89-.11,1.2,.04,.33,.15,.74,.61,.81,.91l15.67,.59-15.64-.39-.03-.19-.55,.18h-.31s.02,.1,.02,.1l-9.56,3.12c.04-.2,.14-.4,.23-.6,.05-.1,.12-.25,.13-.3,0-.05,0-.21,0-.32,0-.25,0-.55,.06-.72,.05-.15,.22-.4,.3-.54,.03-.05,.11-.14,.13-.2,.03-.08,.1-.27,.07-.36-.01-.05-.1-.14-.15-.16-.04-.02-.14-.03-.19-.01-.01,0-.03,.03-.04,.04-.12,.13-.38,.39-.55,.45-.34,.12-1.17-.04-1.45-.18-.24-.12-.56-.47-.67-.68-.09-.16-.12-.54-.24-.67-.12-.13-.49-.2-.62-.32-.19-.18-.48-.66-.52-.92-.04-.24,.12-.71,.19-.94,.02-.09,.11-.25,.11-.34,0-.1-.03-.31-.09-.39-.05-.06-.23-.1-.31-.13-.1-.04-.27-.11-.39-.17-.17-.1-.4-.23-.53-.35-.16-.14-.33-.35-.5-.56-.1-.13-.21-.26-.27-.32-.02-.02-.09-.09-.3-.26-.12-.1-.38-.3-.55-.43l-.09-.08c-.13,.12-.25,.24-.33,.33-.22,.27-.72,.81-.8,1.15-.07,.31,.13,.95,.22,1.26,.08,.29,.43,.82,.44,1.12,.03,.48-.32,1.4-.5,1.85-.16,.41-.5,1.29-.84,1.57-.37,.3-1.35,.44-1.81,.54-.34,.07-1.04,.01-1.36,.14-.36,.15-.87,.8-1.23,.96-.41,.19-1.34,.42-1.79,.35-.15-.02-.41-.12-.59-.25-.08-.06-.14-.12-.17-.18-.14-.36,.47-1.09,.47-1.48,0-.25-.11-.8-.3-.96-.36-.29-1.38-.28-1.83-.21-.31,.05-.9,.33-1.13,.54-.29,.26-.59,.99-.8,1.31-.22,.34-.65,1.02-.92,1.32-.32,.36-1.16,.87-1.46,1.25-.17,.21-.32,.75-.5,.94-.17,.19-.6,.54-.85,.55-.24,0-.66-.29-.83-.45-.15-.14-.27-.6-.46-.67-.18-.07-.64,.01-.76,.16-.17,.2-.05,.8-.04,1.06,0,.19-.02,.6,.09,.76,.1,.14,.51,.18,.6,.33,.11,.18,.11,.67,0,.86-.13,.22-.64,.46-.89,.52-.35,.09-1.09-.11-1.46-.06-.2,.03-.59,.16-.78,.24-.38,.16-1.07,.66-1.46,.81-.26,.1-.84,.14-1.1,.25-.4,.17-1.16,.65-1.45,.97-.23,.25-.44,.92-.62,1.2-.21,.33-.71,.93-.98,1.22-.4,.43-1.17,1.2-1.76,1.68-.13,.11-.25,.2-.36,.27-.52,.35-1.77,.68-2.28,1.04-.47,.34-1.16,1.3-1.6,1.68-.35,.3-1.14,.76-1.49,1.04-.59,.46-1.57,1.62-2.24,1.95-.89,.43-2.92,.53-3.88,.77-.57,.14-1.67,.57-2.24,.68-.56,.11-1.71,.23-2.28,.21-.7-.02-2.08-.38-2.79-.44-.44-.04-1.34,.04-1.78-.06-.52-.12-1.52-.55-1.96-.85-.31-.21-.72-.87-1.04-1.05-.45-.26-1.57-.24-1.99-.53-.27-.19-.66-.76-.75-1.07-.12-.39,.28-1.29,.06-1.63-.17-.27-.87-.42-1.18-.48-.34-.06-1.03,.08-1.37,.04-.45-.06-1.38-.22-1.73-.5-.19-.15-.29-.68-.47-.83-.3-.26-1.1-.58-1.5-.58-.23,0-.62,.27-.83,.35-.17,.07-.52,.23-.71,.24-.29,0-.88-.14-1.13-.3-.16-.1-.39-.4-.48-.57-.09-.18-.05-.63-.18-.79-.17-.21-.71-.44-.98-.47-.25-.03-.74,.2-1,.23-.32,.03-.97,.07-1.28-.01-.32-.09-.89-.46-1.14-.68-.29-.25-.65-.98-.98-1.17-.42-.24-1.43-.26-1.92-.3-.49-.04-1.51-.18-1.98-.04-.4,.12-1.03,.73-1.38,.97-.31,.21-.93,.64-1.25,.83-.27,.15-.82,.49-1.13,.54-.46,.08-1.4-.14-1.86-.24-.93-.21-2.69-1.08-3.64-1.17-.65-.06-1.97,.17-2.61,.32-.38,.09-1.09,.47-1.48,.53-.55,.09-1.69-.01-2.24-.08-.38-.04-1.17-.1-1.51-.28-.3-.16-.77-.71-.96-.99-.28-.42-.55-1.41-.78-1.86-.2-.39-.64-1.15-.91-1.49-.2-.25-.62-.8-.93-.88-.27-.07-.86,.12-1.09,.28-.19,.13-.3,.64-.49,.77-.21,.14-.76,.25-1,.17-.29-.09-.57-.76-.85-.87-.26-.11-.9-.13-1.14,.02-.2,.12-.27,.66-.44,.83-.2,.21-.74,.46-1.01,.58-.28,.12-.85,.34-1.15,.34-.32,0-.94-.22-1.21-.39-.22-.14-.5-.63-.73-.75-.47-.26-1.58-.36-2.12-.42-.62-.07-1.86-.11-2.48-.08-.41,.02-1.25,.32-1.64,.18-.42-.15-.93-.95-1.21-1.29-.26-.32-.64-1.07-.95-1.34-.17-.15-.65-.27-.8-.44-.23-.24-.53-.88-.54-1.21-.02-.36,.46-1.02,.46-1.38,0-.26-.15-.83-.38-.97-.33-.21-1.21-.07-1.55,.12-.23,.13-.4,.7-.61,.85-.31,.21-1.07,.35-1.44,.39-.34,.04-1.07,.09-1.37-.08-.24-.13-.44-.71-.64-.9-.3-.27-1.02-.67-1.4-.78-.3-.08-.95-.1-1.25-.01-.21,.06-.54,.39-.74,.47-.19,.07-.62,.17-.82,.12-.32-.09-.83-.57-1.05-.82-.25-.27-.54-.96-.77-1.25-.23-.28-.76-.77-1.05-1-.19-.15-.57-.47-.8-.52-.36-.09-1.18-.05-1.49,.15-.19,.13-.28,.65-.47,.8-.28,.23-1.03,.4-1.39,.45-.56,.07-1.69,.01-2.24-.1-.29-.06-.86-.27-1.09-.45-.36-.27-.75-1.13-1.09-1.43-.35-.32-1.17-.84-1.63-.99-.37-.12-1.17-.22-1.54-.11-.24,.07-.59,.47-.81,.58-.32,.16-1.01,.37-1.36,.45-.39,.09-1.19,.26-1.58,.21-.61-.08-1.67-.83-2.27-.95-.21-.04-.67-.07-.88,0-.23,.08-.53,.5-.75,.59-.23,.09-.73,.16-.97,.08-.18-.06-.46-.35-.6-.49-.24-.24-.54-.92-.84-1.08-.31-.16-1.03-.05-1.37-.05-.7,0-2.09,.21-2.78,.14-.55-.06-1.6-.47-2.14-.57-.49-.09-1.49-.11-1.98-.21-.52-.11-1.57-.35-2.02-.62-.3-.18-.73-.76-.99-.99-.26-.24-.77-.74-1.08-.91-.27-.15-.87-.37-1.18-.36-.27,0-.78,.25-1.03,.34-.37,.13-1.08,.55-1.48,.56-.46,0-1.3-.42-1.73-.58-.55-.21-1.61-.79-2.19-.92-.35-.08-1.07-.03-1.43-.05-.81-.05-2.44-.47-3.23-.28-.44,.1-1.15,.72-1.55,.94-.53,.29-1.61,.86-2.17,1.09-.98,.41-2.99,1.1-4.01,1.35-1.15,.27-3.49,.57-4.66,.69-.93,.09-2.81,.15-3.74,.19-.81,.04-2.45,.29-3.24,.12-.6-.13-1.69-.74-2.21-1.06-.4-.25-1.19-.8-1.51-1.16-.22-.25-.47-.91-.69-1.16-.16-.18-.62-.39-.77-.58-.17-.2-.3-.74-.46-.95-.1-.13-.51-.42-.51-.42L11.01,13.23l1.33,21.01,5.32,6.64L6.98,59.79l-.25,7.21,4.76,12.86-1.03,11.44,9.99,13.44,1.25,53.17,6.01,254.72,248.62-.06h10.04s11.51,0,11.51,0v-.05s0,.05,0,.05h19.76s56.52-.02,56.52-.02l2.13,3.1,14.81,7.14,16.72-1.22,1.82-18.76,21.79-7.47,8.4-22.66,10.03,1.04,16.93-13.21s-1.9-.96-2.49-1.35c-.38-.25-1.1-.8-1.42-1.13-.26-.26-.76-.82-.89-1.17-.2-.52-.24-1.67-.19-2.22,.04-.41,.41-1.18,.46-1.59,.05-.43,.05-1.31-.09-1.72-.15-.45-.79-1.2-1.08-1.58-.24-.3-.72-.92-1.04-1.14-.18-.12-.64-.18-.81-.32-.25-.21-.61-.81-.69-1.13-.09-.34,0-1.05,.05-1.4,.05-.4,.31-1.19,.32-1.59,0-.33-.06-1.02-.22-1.32-.14-.26-.69-.58-.88-.82-.19-.23-.53-.73-.61-1.01-.08-.3-.03-.95,.04-1.25,.05-.2,.2-.61,.35-.75,.21-.19,.89-.18,1.06-.4,.13-.17,.16-.64,.09-.84-.08-.22-.55-.44-.68-.63-.19-.29-.44-.98-.42-1.32,.01-.21,.28-.55,.35-.75,.11-.3,.35-.92,.33-1.24-.01-.25-.21-.75-.38-.94-.22-.24-.9-.41-1.15-.62-.36-.3-.95-1.05-1.15-1.47-.25-.52-.44-1.69-.54-2.26-.05-.32-.05-.97-.1-1.28-.06-.36-.32-1.05-.36-1.41-.03-.26-.08-.81,.04-1.05,.1-.21,.51-.5,.72-.62,.24-.12,.77-.31,1.03-.28,.25,.03,.76,.25,.89,.47,.12,.21,.09,.77-.03,.99-.1,.17-.56,.24-.66,.41-.1,.19-.08,.65,0,.84,.07,.17,.34,.44,.51,.51,.18,.08,.61,.1,.79,.03,.19-.08,.48-.4,.55-.59,.07-.21-.17-.69-.06-.88,.07-.12,.36-.23,.5-.25,.25-.02,.74,.16,.95,.29,.25,.16,.55,.75,.82,.87,.24,.11,.82,.16,1.08,.07,.34-.13,.76-.79,1.06-1.01,.28-.21,.89-.59,1.22-.72,.36-.13,1.13-.37,1.5-.27,.31,.08,.86,.52,.96,.82,.09,.27-.25,.84-.24,1.13,0,.22,.09,.68,.23,.85,.12,.14,.5,.31,.69,.31,.2,0,.6-.16,.71-.33,.19-.29,.05-1.05,.05-1.4Z"/>
          <path class="cls-2" d="M306.23,22.02c.05,.32,.28,.92,.34,1.23,.06,.35,.09,1.07,.1,1.43,0,.27-.03,.82-.04,1.09-.01,.35-.05,1.06-.05,1.41,0,.27,0,.81,.04,1.08,.03,.21,.18,.62,.21,.84,.04,.38-.05,1.16-.07,1.54-.03,.45-.17,1.36-.12,1.82,.02,.21,.15,.6,.24,.79,.08,.19,.29,.55,.43,.71,.14,.17,.53,.4,.65,.58,.14,.2,.28,.68,.33,.91,.09,.38,.16,1.17,.15,1.56,0,.27-.15,.8-.18,1.07-.05,.42-.11,1.25-.11,1.67,0,.35,.16,1.06,.07,1.4-.07,.25-.41,.67-.56,.88-.1,.14-.35,.39-.41,.55-.07,.18-.12,.58-.1,.77,.02,.2,.15,.6,.28,.75,.12,.15,.52,.29,.66,.43,.16,.17,.39,.6,.44,.83,.07,.32-.1,1-.04,1.32,.04,.27,.31,.75,.37,1.02,.08,.33,.08,1.01,.13,1.34,.01,.11,.04,.27,.07,.43,.11,0,.22,0,.28,0,.13,0,.37-.07,.5-.06,.24,.03,.69,.23,.89,.37,.2,.13,.54,.48,.69,.66,.13,.16,.29,.54,.41,.7,.14,.18,.51,.46,.63,.65,.09,.15,.2,.49,.24,.66,.03,.15,.03,.46,.05,.61,.02,.17,.12,.5,.14,.67,0,.08,0,.25-.01,.33-.02,.1-.13,.29-.17,.39-.01,.02-.03,.06-.05,.1,.15,.13,.31,.26,.43,.32,.2,.11,.64,.21,.87,.25,.23,.04,.7,.04,.93,.09,.21,.04,.64,.16,.84,.25,.26,.12,.73,.46,.96,.63,.27,.21,.8,.64,1.02,.91,.13,.16,.29,.55,.41,.71,.12,.15,.45,.35,.55,.51,.14,.22,.26,.73,.3,.99,.04,.25,.03,.77,.04,1.02,.01,.26,.04,.77,.07,1.02,.03,.24,.15,.7,.16,.94,.01,.3-.08,.9-.1,1.2-.01,.25-.02,.75-.03,1-.02,.39-.07,1.18-.14,1.57-.06,.34-.33,.97-.37,1.31-.05,.39,.02,1.18,.06,1.57,.03,.28,.12,.85,.2,1.13,.04,.13,.11,.38,.19,.52,0,0,0,0,0,0,.01,.02,.03,.05,.04,.07,.13,.17,.54,.34,.68,.5,.11,.12,.18,.48,.31,.58,.15,.12,.59,.09,.76,.2,.15,.09,.39,.37,.44,.54,.05,.17-.03,.53-.07,.7-.03,.14-.17,.4-.19,.54-.06,.33-.13,1.01-.05,1.33,.05,.18,.25,.49,.37,.62,.12,.13,.46,.26,.58,.39,.14,.15,.27,.55,.41,.69,.16,.16,.59,.31,.75,.46,.22,.2,.61,.68,.71,.96,.12,.32,.08,1.02,.09,1.36,0,.37,0,1.12-.05,1.48-.03,.25-.17,.75-.21,1-.06,.39-.2,1.17-.16,1.57,.02,.21,.14,.61,.24,.79,.1,.19,.37,.56,.57,.65,.26,.12,.91-.12,1.16,.04,.17,.11,.26,.53,.35,.71,.1,.2,.32,.5,.48,.79,.12,.2,.21,.39,.24,.54,.07,.41-.17,1.22-.25,1.63-.05,.26-.24,.76-.25,1.02-.02,.31,.06,.95,.15,1.25,.07,.22,.27,.66,.45,.8,.16,.13,.58,.25,.78,.24,.18,0,.52-.12,.66-.22,.16-.11,.31-.52,.48-.59,.23-.11,.76-.03,1.01,.03,.2,.05,.58,.24,.75,.35,.18,.11,.59,.33,.66,.52,.09,.24-.11,.75-.16,1-.05,.26-.22,.77-.25,1.04-.06,.43-.1,1.31-.06,1.74,.02,.19,.07,.58,.17,.75,.09,.15,.36,.42,.53,.48,.18,.05,.56-.13,.75-.11,.19,.02,.63,.11,.71,.29,.09,.2-.29,.62-.29,.84,0,.22,.12,.67,.26,.84,.15,.2,.63,.41,.86,.51,.19,.09,.6,.2,.8,.27,.28,.1,.84,.28,1.1,.43,.18,.1,.5,.35,.64,.5,.2,.21,.5,.72,.67,.96,.14,.2,.39,.64,.56,.81,.18,.17,.6,.45,.84,.53,.15,.06,.5,.03,.65,.09,.29,.1,.81,.46,1.07,.63,.22,.14,.68,.42,.85,.62,.16,.19,.31,.7,.45,.91,.15,.24,.47,.7,.69,.88,.29,.23,.99,.54,1.36,.64,.29,.07,.92-.03,1.2,.06,.21,.07,.59,.33,.75,.48,.14,.14,.29,.52,.41,.67,.1,.12,.38,.3,.47,.43,.09,.15,.17,.49,.2,.66,.04,.35-.04,1.06-.05,1.42-.01,.4-.06,1.21-.05,1.61,0,.51,.03,1.54,.08,2.06,.05,.47,.21,1.41,.33,1.87,.11,.42,.41,1.23,.58,1.64,.16,.4,.57,1.17,.73,1.58,.11,.26,.37,.78,.4,1.06,.03,.23-.02,.71-.1,.94-.08,.23-.46,.58-.53,.81-.09,.27-.12,.86-.04,1.13,.07,.24,.5,.59,.58,.83,.12,.34,.1,1.08,.08,1.44-.01,.25-.22,.75-.16,1,.04,.21,.28,.59,.46,.71,.19,.13,.69,.27,.91,.18,.15-.06,.24-.46,.39-.51,.19-.06,.59,.12,.76,.22,.18,.11,.45,.45,.59,.61,.24,.27,.68,.84,.9,1.12,.31,.4,.87,1.23,1.19,1.61,.21,.26,.67,.74,.91,.97,.18,.16,.54,.48,.74,.62,.19,.13,.65,.26,.82,.42,.18,.16,.41,.6,.5,.82,.14,.35,.18,1.13,.34,1.47,.13,.27,.53,.72,.73,.94,.28,.3,.86,.88,1.21,1.09,.38,.22,1.27,.37,1.67,.56,.55,.26,1.5,1.02,2.03,1.31,.45,.25,1.5,.48,1.85,.85,.26,.27,.39,1.06,.54,1.39,.11,.24,.32,.72,.49,.91,.18,.19,.65,.45,.88,.58,.22,.12,.7,.26,.91,.4,.15,.1,.43,.34,.51,.5,.09,.19,.08,.62,.06,.83-.03,.26-.28,.74-.27,1,0,.23,.12,.69,.28,.86,.14,.16,.58,.26,.78,.33,.21,.08,.67,.13,.84,.27,.21,.17,.44,.68,.54,.94,.12,.32,.11,1.02,.24,1.34,.12,.3,.48,.84,.71,1.07,.15,.15,.49,.41,.68,.48,.29,.11,.94,.1,1.24,.17,.29,.07,.91,.21,1.15,.39,.25,.19,.54,.76,.71,1.03,.21,.33,.54,1.04,.76,1.36,.23,.34,.69,1.06,1.05,1.26,.19,.11,.65,.14,.87,.14,.23,0,.67-.19,.9-.17,.3,.03,.94,.21,1.14,.43,.16,.17,.13,.69,.25,.88,.13,.19,.51,.49,.72,.59,.23,.11,.76,.12,1,.19,.39,.11,1.15,.38,1.5,.58,.43,.24,1.2,.86,1.58,1.17,.29,.24,.81,.79,1.09,1.04,.23,.21,.65,.69,.94,.8,.26,.11,.85,.05,1.14,.05,.21,0,.63,.02,.83-.02,.19-.04,.53-.2,.71-.27,.18-.07,.54-.24,.74-.25,.21-.01,.63,.08,.83,.16,.15,.06,.43,.24,.53,.37,.14,.18,.26,.63,.35,.84,.1,.21,.27,.66,.42,.84,.19,.22,.66,.61,.94,.7,.17,.06,.56,.1,.73,.02,.17-.07,.43-.39,.5-.57,.06-.14,.07-.47,.02-.62-.04-.14-.23-.4-.35-.49-.09-.07-.31-.16-.42-.19-.15-.04-.5,.01-.61-.09-.11-.11-.16-.46-.13-.62,.03-.16,.21-.47,.35-.54,.13-.07,.48,.12,.6,.02,.16-.14,.03-.64,.09-.84,.05-.17,.2-.52,.33-.64,.15-.15,.59-.24,.76-.37,.17-.13,.46-.47,.55-.67,.09-.21,.05-.69,.1-.91,.05-.2,.15-.63,.29-.79,.14-.16,.55-.31,.73-.43,.17-.11,.52-.34,.67-.49,.23-.22,.64-.74,.81-1.02,.18-.3,.49-.94,.53-1.29,.02-.17-.03-.54-.14-.67-.1-.12-.44-.14-.56-.24-.17-.13-.48-.47-.52-.67-.06-.29,.15-.89,.32-1.12,.12-.17,.53-.32,.66-.47,.13-.16,.32-.55,.35-.76,.04-.31-.1-.94-.18-1.24-.11-.4-.42-1.16-.6-1.53-.11-.22-.4-.63-.51-.85-.17-.33-.51-1-.58-1.36-.07-.34,.08-1.05,.02-1.4-.06-.38-.34-1.1-.54-1.43-.11-.19-.45-.49-.56-.69-.14-.26-.31-.82-.37-1.1-.08-.36-.25-1.11-.2-1.48,.03-.19,.21-.55,.33-.7,.09-.11,.34-.3,.48-.35,.23-.07,.71,.07,.95,.03,.15-.02,.46-.1,.56-.21,.11-.12,.22-.48,.18-.65-.03-.15-.26-.39-.38-.48-.09-.07-.36-.08-.43-.17-.09-.13-.03-.47-.02-.63,.01-.26,.15-.78,.15-1.04,0-.24-.12-.72-.14-.97-.04-.34-.13-1.03-.1-1.37,.02-.22,.05-.69,.2-.84,.16-.16,.65-.24,.87-.2,.15,.03,.45,.2,.51,.34,.08,.18-.15,.6-.1,.8,.05,.18,.28,.51,.45,.6,.18,.09,.63,.11,.82,.03,.17-.07,.4-.39,.49-.55,.12-.22,.24-.73,.25-.98,.01-.23-.05-.69-.13-.91-.07-.18-.3-.51-.44-.64-.16-.15-.57-.32-.74-.46-.19-.16-.6-.5-.69-.74-.1-.27-.02-.86,.04-1.13,.03-.16,.1-.53,.24-.62,.17-.11,.62,.08,.82,.03,.17-.05,.5-.22,.6-.37,.12-.19,.18-.67,.1-.88-.03-.08-.19-.15-.23-.23-.09-.2-.14-.66-.07-.86,.1-.3,.71-.67,.85-.96,.07-.14,.12-.45,.11-.61-.01-.22-.34-.63-.26-.84,.08-.2,.54-.36,.74-.41,.17-.04,.56,.11,.71,.02,.21-.11,.47-.58,.49-.81,.02-.21-.18-.6-.29-.78-.12-.19-.47-.47-.6-.65-.19-.25-.54-.78-.62-1.08-.06-.24-.06-.76,.03-.99,.09-.21,.43-.55,.63-.65,.2-.1,.68-.02,.88-.12,.16-.08,.4-.36,.5-.51,.15-.24,.38-.78,.39-1.06,0-.29-.18-.85-.31-1.1-.1-.18-.45-.45-.53-.64-.12-.27-.24-.87-.19-1.16,.04-.23,.29-.64,.44-.81,.16-.19,.62-.44,.81-.61,.17-.15,.53-.43,.62-.63,.11-.25,.11-.81,.07-1.07-.06-.36-.35-1.04-.57-1.33-.21-.28-.89-.59-1.09-.87-.18-.25-.46-.83-.44-1.14,.01-.3,.5-.78,.53-1.07,.03-.28-.31-.81-.25-1.09,.08-.38,.64-.97,.92-1.24,.25-.24,.91-.51,1.16-.75,.33-.3,.95-.98,1.1-1.4,.18-.52,.14-1.68,.03-2.23-.07-.32-.5-.87-.53-1.2-.03-.3,.09-.92,.26-1.17,.12-.18,.56-.35,.72-.5,.23-.23,.56-.79,.74-1.07,.24-.38,.65-1.19,.93-1.54,.27-.34,.96-.91,1.27-1.22,.26-.26,1-1.06,1-1.06,0,0-.77-2.65-1.1-3.79-.02-.07-.04-.14-.06-.2-.26-.89-.83-2.66-1.08-3.56-.12-.43-.3-1.31-.44-1.73-.2-.6-.7-1.76-.97-2.33-.44-.92-1.5-2.69-1.98-3.59-.63-1.18-1.81-3.58-2.43-4.77-.89-1.7-3.62-6.76-3.62-6.76l-5.64-10.82v-4.31s-2.39,.03-2.39,.03l-.02-5.33-17.63-34.87s-1.82,1.61-2.44,2.13c-.78,.65-2.35,1.95-3.18,2.54-.91,.64-2.77,1.89-3.79,2.35-.71,.32-2.24,.63-2.98,.89-.43,.15-1.27,.49-1.69,.67-.7,.31-2.06,1.05-2.76,1.36-.46,.21-1.38,.61-1.86,.75-.29,.09-.88,.23-1.18,.25-.28,.02-.86,0-1.14-.07-.15-.04-.43-.19-.58-.25-.2-.09-.58-.29-.77-.38-.45-.2-1.36-.54-1.81-.73-.42-.18-1.25-.56-1.67-.76-.25-.12-.75-.37-1.01-.47-.27-.1-.81-.35-1.1-.33-.17,.01-.44,.24-.59,.3-.19,.08-.65,.08-.8,.23-.09,.09-.15,.37-.1,.49,.07,.2,.55,.36,.75,.44,.25,.1,.74,.35,.98,.46,.44,.21,1.3,.68,1.77,.82,.49,.15,1.51,.23,2,.36,.33,.08,1.06,.18,1.3,.42,.16,.17,.37,.7,.23,.88-.14,.2-.73,0-.96,.05-.29,.07-.8,.42-1.1,.46-.46,.05-1.37-.25-1.83-.3-.35-.04-1.07-.14-1.43-.08-.22,.04-.7,.16-.83,.35-.12,.17-.04,.61-.03,.81,.01,.27,.24,.81,.14,1.05-.06,.14-.35,.34-.51,.36-.11,.02-.36-.05-.43-.13-.1-.11-.03-.47-.13-.59-.19-.24-.83-.4-1.12-.5-.2-.07-.6-.2-.81-.23-.25-.04-.79-.11-1.02,0-.29,.13-.54,.81-.82,.96-.3,.16-1.07-.01-1.35,.19-.16,.12-.18,.63-.35,.74-.25,.18-.9,.14-1.2,.13-.32,0-1,.03-1.25-.16-.1-.08-.19-.35-.22-.47-.06-.28-.08-.86-.02-1.14,.05-.23,.34-.64,.44-.86,.11-.25,.36-.76,.41-1.03,.06-.29,.2-.92,.04-1.16-.15-.21-.72-.32-.98-.35-.18-.02-.53,.04-.7,.09-.2,.06-.59,.25-.77,.35-.24,.14-.67,.52-.93,.64-.21,.1-.66,.19-.88,.26-.28,.09-.93,.15-1.12,.37-.15,.17-.26,.7-.15,.9,.09,.17,.52,.3,.72,.32,.2,.01,.61-.09,.77-.21,.14-.11,.21-.54,.37-.63,.24-.13,.83-.03,1.08,.07,.17,.07,.49,.29,.57,.46,.09,.18,.04,.59,0,.79-.04,.22-.16,.68-.32,.83-.16,.14-.62,.17-.83,.23-.21,.07-.69,.15-.83,.32-.15,.18,0,.75-.18,.9-.21,.17-.81-.02-1.08-.04-.31-.02-1.02,.11-1.25-.1-.11-.09-.12-.42-.1-.56,.03-.27,.5-.71,.44-.97-.05-.2-.43-.47-.62-.52-.25-.06-.84,.06-1,.26-.1,.12,.09,.51-.02,.61-.18,.17-.74,0-.99,0-.24,0-.73-.08-.96-.03-.44,.09-1.25,.53-1.66,.73-.3,.15-.88,.5-1.19,.63-.23,.1-.7,.28-.94,.32-.29,.04-.92,.08-1.16-.07-.16-.1-.44-.47-.39-.65,.08-.27,.73-.41,.98-.52,.31-.13,.98-.26,1.27-.42,.22-.12,.56-.49,.78-.61,.25-.14,.81-.25,1.06-.37,.32-.16,.89-.61,1.19-.8,.36-.23,1.08-.68,1.43-.91,.26-.17,.75-.56,1.02-.72,.44-.27,1.37-.74,1.84-.96,.37-.18,1.14-.47,1.51-.65,.34-.17,1.02-.53,1.34-.74,.41-.27,1.1-1.05,1.56-1.23,.44-.17,1.4-.13,1.87-.14,.66-.01,1.98-.06,2.62,.09,.49,.11,1.45,.48,1.93,.66,.32,.12,.82,.24,1.08,.11,.17-.08,.42-.39,.49-.57,.06-.17,.1-.58,0-.73-.17-.24-.81-.33-1.1-.42-.38-.11-1.17-.25-1.56-.34-.44-.11-1.21-.15-1.61-.17-.61-.03-1.82-.07-2.43-.1-.53-.03-1.59-.09-2.1,.12-.64,.26-1.72,1.14-2.3,1.52-.43,.29-1.3,.88-1.73,1.16-.84,.55-2.57,1.6-3.4,2.18-.49,.35-1.41,1.15-1.92,1.48-.38,.24-1.21,.61-1.6,.83-.27,.15-.78,.53-1.07,.63-.34,.12-1.07,.07-1.41,.19-.31,.11-.79,.61-1.1,.69-.42,.11-1.3,0-1.72-.1-.35-.09-.98-.47-1.32-.6-.33-.12-1.01-.27-1.34-.38-.21-.07-.65-.22-.83-.35-.32-.22-.83-.82-1.1-1.1-.24-.25-.67-.81-.94-1.02-.33-.26-1.12-.6-1.47-.84-.13-.09-.3-.21-.48-.35-.29-.22-.6-.48-.79-.63-.3-.25-.8-.89-1.16-1.03-.23-.09-.75-.14-.98-.03-.14,.06-.34,.32-.37,.47-.03,.18,.15,.54,.22,.71,.07,.18,.31,.49,.34,.68,.03,.2-.03,.55-.09,.81-.02,.07-.03,.13-.05,.19-.08,.28-.36,.81-.45,1.09-.09,.29-.25,.87-.27,1.17,0,.13,0,.29,0,.47,.02,.45,.09,.99,.14,1.3Zm1.19-1.24s0,0,0-.01c-.01-.31-.07-.9-.02-1.19,.04-.25,.29-.71,.37-.95,.07-.21,.22-.62,.22-.84,0-.19-.35-.57-.22-.71,.15-.16,.66,.13,.85,.23,.15,.08,.37,.23,.56,.39,.13,.11,.25,.23,.32,.32,.1,.14,.2,.47,.27,.62,.06,.12,.16,.38,.25,.49,.14,.17,.58,.34,.71,.52,.13,.18,.28,.62,.29,.84,.02,.23-.02,.74-.18,.91-.18,.2-.76,.31-.99,.46-.16,.1-.48,.33-.59,.49-.11,.18-.16,.61-.22,.81-.06,.19-.18,.58-.26,.76-.08,.17-.22,.54-.36,.67-.16,.16-.59,.54-.8,.45-.27-.12-.25-.85-.28-1.14-.03-.25,.03-.76,.07-1.02,.04-.26,.08-.78,.08-1.05,0-.27-.07-.8-.08-1.06Z"/>
        </g>
        <path class="" d="M266.56,105.28c0-.17,0-.39-.02-.62-.01-.19-.03-.4-.02-.52,.02-.3,.09-.83,.16-1.09,0,0,0-.02,.01-.03,.05-.11,.16-.31,.23-.41,.06-.1,.18-.29,.26-.37,.03-.04,.11-.09,.16-.13,.16-.11,.33-.28,.41-.39,.02-.03,.06-.09,.08-.12,.1-.16,.31-.48,.36-.66,.06-.22,.05-.69,0-.92-.03-.17-.16-.43-.27-.62-.03-.05-.06-.1-.08-.13-.04-.08-.09-.17-.15-.26-.09-.16-.23-.4-.26-.5-.02-.08-.04-.35-.03-.5,.01-.15,.08-.48,.13-.6,.02-.05,.1-.17,.16-.26,.11-.17,.23-.34,.28-.51,.04-.11,.06-.26,.08-.4,.4,0,1.04,.02,1.34,.05,.45,.05,1.36,.25,1.74,.53,.42,.32,.98,1.24,1.28,1.67,.32,.46,.84,1.49,1.22,1.9,.23,.25,.83,.62,1.08,.85,.26,.25,.7,.82,.96,1.08,.2,.2,.58,.64,.82,.79,.38,.23,1.24,.47,1.67,.55,.38,.07,1.16-.01,1.54,.05,.51,.08,1.51,.36,1.96,.59,.24,.12,.65,.47,.85,.64,.47,.4,1.33,1.29,1.75,1.75,.3,.34,.76,1.17,1.15,1.41,.39,.24,1.32,.33,1.77,.38,.31,.03,.94-.02,1.25-.02,.62,0,1.86,.01,2.48,.08,.35,.04,1.03,.18,1.36,.28,.54,.16,1.61,.54,2.1,.8,.41,.22,1.09,.87,1.51,1.07,.23,.11,.73,.28,.98,.3,.05,0,.1,0,.16,0,.38-.02,.97-.15,1.28-.21,.63-.13,1.87-.51,2.5-.67,.62-.16,1.85-.44,2.47-.59,.76-.18,2.35-.34,3.06-.68,.29-.14,.79-.56,.99-.81,.25-.31,.48-1.13,.75-1.43,.3-.34,1.06-.84,1.46-1.03,.5-.24,1.58-.51,2.12-.6,.4-.06,1.21,0,1.61-.06,.36-.05,1.08-.2,1.41-.36,.36-.17,.98-.7,1.29-.95,.33-.27,.89-.93,1.26-1.12,.27-.14,.88-.22,1.18-.25,.54-.05,1.62-.02,2.16,.04,.41,.05,1.21,.32,1.62,.38,.34,.04,1.03,.04,1.37,.05,.47,0,1.43,.07,1.9-.02,.12-.02,.36-.12,.56-.2,.15,.48,.3,1.03,.36,1.37,.12,.6,.29,1.84,.24,2.45-.03,.36-.15,1.12-.4,1.38-.17,.18-.75,.17-.92,.35-.24,.25-.41,.98-.4,1.33,.01,.31,.31,.87,.43,1.15,.14,.32,.38,1,.6,1.27,.25,.31,1.04,.63,1.28,.95,.3,.41,.47,1.45,.66,1.92,.29,.7,.93,2.07,1.31,2.72,.23,.41,.68,1.27,1.06,1.55,.41,.31,1.46,.53,1.96,.62,.29,.05,.91-.05,1.19,.04,.33,.1,.95,.47,1.17,.74,.32,.38,.67,1.34,.75,1.83,.12,.64-.07,1.96-.09,2.62-.02,.54-.16,1.62-.07,2.15,.06,.36,.31,1.07,.54,1.36,.19,.23,.7,.61,1,.67,.25,.06,.77-.13,1.03-.14,.28-.01,.87-.07,1.14,.04,.45,.18,1.11,.95,1.44,1.3,.4,.44,1.21,1.34,1.45,1.88,.23,.52,.22,1.71,.39,2.25,.15,.48,.56,1.43,.87,1.84,.19,.24,.72,.59,.96,.79,.22,.18,.61,.63,.88,.73,.27,.1,.9-.12,1.14,.04,.17,.11,.31,.54,.35,.74,.07,.35-.22,1.11-.05,1.42,.15,.28,.78,.56,1.09,.65,.25,.07,.87-.16,1.05,.04,.26,.28-.16,1.17-.05,1.54,.07,.27,.4,.74,.61,.92,.26,.22,.96,.37,1.23,.57,.4,.29,1.15,.98,1.38,1.42,.19,.35,.16,1.2,.33,1.55,.13,.27,.5,.78,.76,.93,.25,.15,.84,.21,1.13,.21,.25,0,.75-.18,1-.14,.26,.04,.79,.23,.95,.44,.17,.22,.26,.84,.2,1.11-.08,.35-.84,.81-.83,1.17,0,.28,.45,.75,.7,.9,.32,.19,1.1,.24,1.48,.25,.35,.01,1.05-.12,1.41-.16,.33-.04,1-.24,1.32-.16,.36,.09,1.06,.5,1.23,.83,.2,.38-.22,1.32-.06,1.72,.15,.37,.84,.84,1.13,1.12,.21,.2,.61,.66,.88,.79,.24,.11,.84-.01,1.05,.15,.15,.12,.22,.55,.27,.74,.08,.32,0,1.04,.19,1.32,.27,.41,1.43,.6,1.69,1.02,.22,.36,.22,1.28,.12,1.69-.06,.24-.32,.7-.52,.83-.16,.1-.55,.12-.73,.09-.21-.03-.61-.19-.78-.32-.14-.11-.26-.49-.42-.57-.19-.1-.65-.11-.85-.03-.18,.07-.48,.36-.54,.53-.09,.25,0,.81,.11,1.05,.08,.2,.37,.58,.56,.69,.15,.08,.54,.15,.7,.08,.16-.07,.24-.49,.4-.57,.17-.09,.59-.06,.76,.03,.15,.08,.38,.37,.42,.54,.07,.3-.21,.91-.25,1.21-.03,.23-.16,.74-.03,.93,.13,.19,.64,.25,.87,.29,.28,.05,.86,0,1.14,.04,.3,.04,.9,.18,1.19,.3,.3,.13,.92,.44,1.11,.71,.14,.2,.24,.7,.23,.94,0,.17-.09,.54-.23,.63-.18,.12-.66,0-.87-.03-.29-.03-.88-.13-1.16-.21-.37-.1-1.11-.35-1.44-.54-.28-.16-.71-.65-.99-.79-.38-.19-1.23-.35-1.65-.41-.24-.03-.76-.16-.96-.03-.18,.11-.37,.54-.35,.74,.03,.37,.59,.95,.86,1.19,.23,.2,.77,.48,1.06,.56,.29,.08,.94-.11,1.19,.04,.28,.16,.57,.8,.69,1.1,.13,.31,.16,1.01,.31,1.32,.11,.24,.43,.67,.64,.84,.27,.22,1.01,.33,1.26,.57,.22,.2,.53,.75,.58,1.04,.05,.33-.28,.99-.25,1.33,.02,.27,.21,.8,.37,1,.26,.31,1.08,.59,1.37,.86,.24,.23,.64,.77,.78,1.07,.14,.3,.23,.97,.31,1.29,.14,.59,.28,1.84,.56,2.38,.19,.37,.77,1.02,1.12,1.23,.4,.24,1.34,.34,1.79,.44,.45,.1,1.42,.09,1.8,.35,.39,.27,.86,1.16,1.02,1.61,.1,.28,.07,.91,.16,1.2,.12,.39,.7,1.05,.71,1.45,0,.27-.28,.78-.44,1-.17,.22-.72,.48-.84,.73-.1,.2-.1,.69-.03,.9,.09,.26,.48,.7,.7,.87,.25,.19,.87,.37,1.15,.51,.3,.14,.98,.3,1.18,.56,.29,.38,.31,1.42,.34,1.9,.04,.57-.18,1.73-.08,2.3,.06,.31,.31,.9,.49,1.15,.18,.26,.75,.61,.93,.88,.19,.28,.35,.97,.51,1.27,.09,.16,.26,.5,.42,.6,.33,.22,1.17,.33,1.56,.32,.24,0,.69-.3,.91-.23,.21,.07,.49,.46,.56,.66,.11,.29,.11,.95,.02,1.25-.06,.19-.28,.54-.46,.62-.24,.12-.82-.12-1.08-.04-.24,.08-.65,.4-.78,.61-.13,.21-.27,.75-.18,.98,.07,.17,.48,.28,.6,.43,.15,.19,.42,.65,.38,.89-.04,.23-.44,.58-.64,.71-.17,.11-.63,.09-.77,.24-.14,.14-.23,.58-.23,.78,0,.51,.39,1.5,.63,1.94,.14,.25,.5,.71,.73,.87,.35,.24,1.21,.38,1.58,.58,.28,.15,.73,.63,1.03,.73,.28,.1,.91-.04,1.2,.04,.27,.07,.77,.34,.97,.53,.28,.27,.68,.97,.8,1.34,.1,.3,.24,.96,.13,1.26-.1,.26-.72,.5-.81,.76-.09,.24,.02,.78,.11,1.02,.11,.29,.52,.78,.72,1.02,.3,.36,.97,1.02,1.33,1.33,.44,.38,1.45,1,1.88,1.4,.48,.45,1.4,1.43,1.71,2.01,.29,.55,.45,1.82,.65,2.41,.18,.56,.59,1.66,.86,2.18,.31,.58,1.06,1.66,1.47,2.18,.58,.73,1.93,2.03,2.56,2.71,.35,.38,1.2,1.05,1.41,1.53,.14,.33,.04,1.08,.1,1.43,.06,.35,.19,1.07,.36,1.38,.15,.29,.66,.72,.87,.96,.16,.18,.51,.53,.62,.75,.15,.3,.19,.99,.33,1.29,.13,.25,.48,.69,.7,.87,.3,.25,1.06,.49,1.38,.72,.35,.26,1,.86,1.21,1.24,.23,.4,.44,1.33,.49,1.79,.04,.34-.18,1.05-.05,1.37,.11,.26,.58,.64,.82,.79,.32,.19,1.11,.26,1.41,.48,.2,.15,.46,.59,.59,.81,.16,.28,.32,.9,.48,1.18,.11,.2,.38,.58,.56,.72,.25,.19,.89,.31,1.15,.48,.29,.19,.8,.65,.99,.94,.22,.33,.43,1.12,.53,1.5,.12,.49,.12,1.53,.31,1.99,.11,.27,.51,.72,.7,.96,.27,.35,.91,.98,1.15,1.35,.26,.4,.64,1.27,.82,1.72,.21,.53,.48,1.64,.68,2.18,.18,.47,.52,1.43,.81,1.83,.22,.31,.81,.83,1.13,1.03,.31,.19,1.06,.33,1.35,.54,.25,.18,.65,.68,.79,.96,.15,.32,.26,1.05,.27,1.41,0,.4-.32,1.18-.23,1.56,.07,.28,.45,.76,.67,.95,.28,.24,1.05,.43,1.32,.69,.25,.24,.62,.85,.69,1.19,.08,.41-.25,1.24-.23,1.65,.02,.36,.09,1.14,.33,1.41,.2,.23,.88,.3,1.15,.45,.16,.09,.48,.31,.6,.46,.25,.33,.37,1.19,.59,1.53,.18,.28,.67,.75,.93,.96,.18,.14,.61,.33,.77,.49,.31,.31,.75,1.09,.94,1.49,.33,.7,.71,2.22,.98,2.94,.25,.67,.74,2,1.08,2.63,.33,.61,1.18,1.73,1.58,2.3,.33,.47,.95,1.46,1.37,1.85,.45,.43,1.59,1,2.08,1.38,.48,.37,1.4,1.18,1.81,1.63,.27,.3,.79,.92,.95,1.28,.14,.31,.31,.98,.28,1.32-.02,.23-.24,.67-.38,.86-.14,.19-.62,.42-.69,.65-.08,.22,.05,.72,.14,.94,.11,.25,.51,.64,.7,.84,.23,.24,.78,.63,.96,.91,.24,.37,.44,1.25,.56,1.68,.1,.38,.11,1.2,.3,1.55,.11,.21,.45,.54,.65,.66,.22,.14,.77,.17,.98,.32,.25,.19,.58,.74,.72,1.01,.18,.33,.37,1.05,.54,1.39,.16,.33,.45,1.03,.75,1.25,.22,.16,.8,.19,1.07,.24,.3,.06,.92,.12,1.22,.22,.34,.11,1,.41,1.26,.65,.34,.31,.74,1.15,.97,1.55,.22,.38,.5,1.24,.82,1.54,.29,.27,1.09,.51,1.47,.66,.37,.15,1.14,.35,1.5,.52,.27,.13,.84,.41,1.03,.65,.17,.21,.24,.76,.35,1,.18,.41,.61,1.2,.82,1.6,.13,.24,.3,.79,.52,.95,.17,.12,.63,.15,.84,.14,.14,0,.4-.08,.53-.13,.14-.05,.39-.24,.53-.24,.16,0,.49,.08,.61,.2,.14,.14,.19,.58,.27,.77,.1,.26,.27,.81,.46,1.01,.22,.23,.83,.51,1.15,.59,.23,.06,.75-.09,.96,.03,.27,.16,.59,.76,.64,1.07,.06,.37-.34,1.07-.34,1.44,0,.3,.08,.93,.25,1.17,.14,.2,.59,.5,.83,.49,.18,0,.44-.3,.6-.39,.22-.13,.64-.54,.89-.49,.2,.04,.41,.45,.5,.63,.13,.24,.13,.84,.31,1.03,.22,.23,.89,.3,1.18,.42,.21,.09,.63,.26,.8,.41,.21,.18,.55,.66,.64,.92,.11,.33,.07,1.03,.07,1.37,0,.35,.15,1.11-.05,1.4-.11,.16-.52,.32-.71,.33-.19,0-.57-.17-.69-.31-.14-.17-.23-.63-.23-.85,0-.29,.34-.85,.24-1.13-.1-.3-.66-.74-.96-.82-.37-.1-1.14,.14-1.5,.27-.33,.12-.94,.5-1.22,.71-.29,.22-.71,.89-1.06,1.01-.25,.09-.83,.05-1.08-.07-.27-.13-.56-.71-.82-.87-.21-.13-.7-.31-.95-.29-.14,.01-.43,.12-.5,.24-.11,.19,.13,.67,.06,.88-.07,.19-.36,.52-.55,.59-.18,.08-.61,.05-.79-.03-.17-.07-.44-.35-.51-.51-.08-.2-.1-.66,0-.84,.09-.17,.56-.25,.66-.41,.12-.21,.16-.77,.03-.99-.13-.22-.64-.44-.89-.47-.27-.03-.79,.16-1.03,.28-.21,.11-.62,.4-.72,.62-.11,.24-.06,.79-.04,1.05,.04,.36,.3,1.05,.36,1.41,.05,.32,.05,.97,.1,1.28,.09,.57,.28,1.74,.54,2.26,.2,.42,.79,1.17,1.15,1.47,.25,.21,.93,.38,1.15,.62,.17,.19,.36,.69,.38,.94,.02,.32-.22,.94-.33,1.24-.07,.19-.33,.54-.35,.75-.02,.35,.24,1.03,.42,1.32,.12,.2,.6,.42,.68,.63,.07,.2,.04,.67-.09,.84-.17,.22-.86,.21-1.06,.4-.15,.14-.3,.55-.35,.75-.07,.3-.12,.95-.04,1.25,.07,.29,.42,.78,.61,1.01,.19,.23,.74,.55,.88,.82,.16,.29,.22,.98,.22,1.32,0,.41-.27,1.19-.32,1.59-.04,.35-.14,1.06-.05,1.4,.08,.32,.44,.92,.69,1.13,.17,.14,.63,.2,.81,.32,.32,.22,.8,.84,1.04,1.14,.3,.38,.93,1.13,1.08,1.58,.14,.41,.14,1.29,.09,1.72-.05,.41-.42,1.17-.46,1.59-.06,.55-.01,1.7,.19,2.22,.13,.34,.64,.9,.89,1.17,.32,.32,1.04,.88,1.42,1.13,.59,.39,2.49,1.35,2.49,1.35l-16.93,13.21-10.03-1.04-8.4,22.66-21.79,7.47-1.82,18.76-16.72,1.22-14.81-7.14-2.13-3.1h-56.52s2.07-10.06,2.07-10.06l10.09-7.66,4.52-3.22c.11,.06,.22,.1,.3,.11,.13,0,.39-.14,.46-.25,.06-.09,.07-.19,.07-.34h.02s5.35-2.54,7.13-3.39c1.43-.69,4.26-2.12,5.7-2.81,.69-.33,2.04-1.03,2.76-1.27,.43-.14,1.32-.31,1.76-.38,1.13-.18,3.42-.35,4.57-.46,1.16-.11,3.47-.28,4.62-.4,1.15-.11,3.46-.29,4.6-.51,.83-.16,2.46-.65,3.27-.91,.64-.21,1.93-.64,2.54-.93,.38-.18,1.09-.61,1.43-.85,.13-.09,.46-.26,.48-.42,.03-.2-.34-.49-.44-.66-.33-.56-.85-1.75-1.18-2.31-.21-.37-.72-1.05-.91-1.43-.14-.27-.43-.82-.49-1.12-.08-.42,.03-1.28,.06-1.71,.04-.76,.2-2.27,.25-3.02,.02-.35,.06-1.05,.05-1.4-.01-.27-.07-.8-.14-1.05-.16-.65-.71-1.88-.96-2.51-.5-1.24-1.53-3.7-2.05-4.93-.3-.72-.89-2.16-1.22-2.87-.15-.34-.51-.99-.65-1.33-.1-.23-.29-.7-.35-.94-.06-.27-.07-.83-.08-1.11-.1-2.02-.16-6.08-.19-8.1-.03-1.97-.01-5.9-.05-7.86-.06-2.61-.28-7.83-.37-10.44-.03-.99-.06-2.98-.13-3.96-.05-.7-.21-2.11-.31-2.81-.1-.68-.44-2.01-.52-2.7-.05-.43-.08-1.29-.06-1.72,.03-.51,.2-1.52,.27-2.03,.07-.47,.2-1.41,.27-1.88,.05-.38,.17-1.15,.2-1.54,.04-.44,.08-1.31,.06-1.74-.02-.42-.15-1.26-.23-1.67-.18-.88-.65-2.62-.93-3.47-.13-.4-.52-1.16-.62-1.56-.09-.35-.14-1.07-.16-1.43-.03-.79,.08-2.36,.14-3.14,.06-.9,.25-2.7,.36-3.6,.11-.99,.37-2.96,.51-3.94,.05-.34,.17-1.02,.22-1.36,.04-.25,.17-.74,.15-.98-.02-.24-.14-.71-.26-.91-.1-.17-.41-.42-.53-.57-.16-.2-.41-.63-.56-.83-.39-.58-1.18-1.73-1.58-2.3-.36-.51-.99-1.6-1.45-2.03-.61-.57-2.12-1.31-2.83-1.76-.73-.46-2.17-1.41-2.91-1.85-.68-.4-2.11-1.08-2.78-1.49-.7-.43-2-1.42-2.68-1.87-.51-.34-1.55-.96-2.06-1.29-.43-.29-1.26-.92-1.71-1.19-.41-.25-1.3-.66-1.72-.9-.18-.11-.62-.39-.85-.55,0-.25,0-.48-.02-.65-.02-.46-.2-1.36-.22-1.82-.02-.43,.09-1.28,.04-1.7-.06-.39-.38-1.13-.47-1.52-.08-.35-.23-1.05-.21-1.4,.02-.36,.15-1.1,.35-1.41,.22-.34,.99-.71,1.28-.98,.35-.33,.93-1.11,1.25-1.46,.32-.35,1.07-.98,1.34-1.37,.16-.23,.31-.8,.47-1.03,.18-.26,.67-.66,.88-.89,.66-.68,1.99-2.04,2.61-2.75,.27-.31,.78-.95,1.03-1.28,.23-.29,.68-.88,.87-1.19,.16-.27,.44-.84,.54-1.14,.13-.37,.34-1.14,.36-1.54,.03-.51-.2-1.53-.26-2.04-.05-.44-.08-1.32-.18-1.75-.13-.56-.6-1.62-.82-2.15-.27-.62-.9-1.83-1.19-2.44-.21-.45-.66-1.35-.84-1.82-.21-.57-.48-1.75-.69-2.32-.37-.99-1.35-2.86-1.75-3.84-.19-.47-.55-1.44-.7-1.92-.11-.34-.11-1.13-.37-1.37-.19-.17-.75-.14-1-.19-.51-.1-1.58-.16-2.04-.4-.25-.13-.57-.64-.8-.79-.17-.11-.54-.25-.73-.29-.38-.08-1.16-.07-1.55-.05-.59,.03-1.74,.27-2.33,.29-.57,.03-1.7-.08-2.27-.08-.41,0-1.23,.03-1.64,.05-.53,.04-1.6,.06-2.11,.21-.63,.19-1.75,.92-2.34,1.21-.81,.4-2.47,1.15-3.27,1.57-.55,.29-1.63,.89-2.16,1.21-.38,.23-1.1,.73-1.48,.95-.25,.15-.75,.45-1.03,.55-.19,.07-.57,.19-.77,.19-.38,0-1.09-.28-1.45-.4-.44-.14-1.38-.34-1.73-.65-.01,0-.02-.02-.03-.03-.21-.22-.41-.76-.52-1.01-.26-.6-.74-1.83-.88-2.48-.08-.37-.06-1.14-.15-1.51-.08-.37-.4-1.06-.52-1.42-.12-.36-.28-1.11-.43-1.46-.16-.37-.54-1.08-.78-1.4-.33-.43-1.17-1.12-1.57-1.49-.44-.41-1.34-1.18-1.76-1.61-.51-.52-1.41-1.66-1.92-2.18-.27-.27-.82-.81-1.12-1.04-.21-.16-.66-.48-.92-.56-.31-.09-.99,.02-1.31-.04-.33-.07-.94-.36-1.25-.5-.33-.15-.97-.51-1.31-.63-.36-.13-1.1-.34-1.47-.4-.28-.04-.85,0-1.14-.04-.24-.03-.73-.11-.96-.21-.18-.08-.54-.28-.66-.44-.16-.21-.24-.76-.32-1.02-.18-.6-.44-1.85-.73-2.41-.16-.31-.66-.8-.84-1.1-.18-.32-.34-1.07-.57-1.35-.25-.31-1.01-.65-1.3-.92-.21-.19-.55-.68-.76-.88-.17-.16-.55-.4-.73-.55,0,0,0,0-.01,0-.35-.29-.96-.92-1.33-1.17-.32-.23-1.08-.52-1.4-.75-.19-.14-.59-.45-.7-.66-.15-.28-.2-.94-.22-1.25-.02-.31,0-.94,.04-1.24,.04-.31,.26-.92,.3-1.23,.04-.25,.08-.75,.06-1-.02-.24-.14-.73-.25-.95-.17-.34-.69-.91-.94-1.19-.3-.32-.93-.95-1.29-1.2-.34-.23-1.1-.56-1.49-.71-.51-.2-1.56-.48-2.08-.64-.34-.1-1.01-.31-1.34-.39-.39-.1-1.19-.22-1.56-.36-.22-.08-.64-.29-.82-.44-.15-.13-.4-.45-.5-.63-.18-.31-.44-.99-.55-1.33-.11-.35-.2-1.09-.3-1.45-.13-.46-.5-1.34-.66-1.79-.13-.37-.32-1.13-.5-1.48-.17-.33-.65-.92-.9-1.21-.41-.48-1.34-1.33-1.78-1.79-.56-.58-1.7-1.73-2.22-2.35-.41-.49-1.1-1.55-1.51-2.04-.36-.43-1.24-1.16-1.56-1.63-.03-.05-.07-.11-.11-.18-.15-.26-.31-.63-.38-.84-.11-.35-.15-1.09-.21-1.45-.07-.43-.24-1.29-.34-1.71-.09-.41-.31-1.22-.43-1.63-.08-.3-.29-.9-.35-1.21-.09-.44-.16-1.34-.25-1.78-.29-1.49-1.03-4.12-1.53-6.07-.13-.5-.24-.95-.32-1.33-.61-2.77-1.58-8.35-2.16-11.12-.22-1.05-.73-3.14-.95-4.2-.14-.65-.43-1.95-.49-2.61-.07-.7-.02-2.1-.02-2.8,0-1.11-.01-3.32,0-4.43,.02-1,.04-2.99,.14-3.98,.06-.61,.25-1.82,.37-2.45,0-.01,0-.03,0-.04,.1-.52,.33-1.57,.51-2.08,.16-.45,.65-1.27,.79-1.72,.18-.6,.27-1.87,.41-2.49,.14-.64,.5-1.91,.7-2.54,.11-.33,.36-.97,.48-1.29,.2-.54,.61-1.61,.77-2.16,.11-.37,.37-1.12,.37-1.5,0-.21-.08-.65-.2-.82-.17-.23-.77-.41-1-.59-.12-.09-.35-.27-.42-.39-.14-.23-.29-.76-.31-1.03,0-.11-.06-.5-.1-.86,.03-.02,.05-.04,.08-.06,.35-.3,.68-1.03,.81-1.32,.06-.14,.12-.39,.15-.52,.02-.09,.06-.28,.1-.36,.04-.1,.16-.27,.21-.36,.09-.15,.28-.44,.33-.6,.1-.29,.18-1.19,.18-1.2Z"/>
        <path class="" d="M163.62,158.23h16.08s63.16,.03,63.16,.03c.03,.18,.08,.37,.13,.48,.14,.29,.61,.75,.77,1.03,.11,.19,.25,.55,.37,.81,.03,.06,.05,.12,.08,.17,.16,.32,.6,.9,.7,1.25,.09,.33,0,1.02,.06,1.36,.07,.39,.31,1.14,.45,1.5,.14,.35,.58,.97,.68,1.33,.08,.29,.07,.89,.07,1.18,0,.28,0,.84-.06,1.11-.05,.22-.24,.63-.31,.84-.1,.32-.29,.97-.36,1.3-.15,.7-.34,2.11-.48,2.81-.15,.75-.51,2.23-.66,2.98-.08,.41-.29,1.23-.29,1.65,0,.45,.18,1.35,.29,1.79,.1,.41,.39,1.2,.53,1.59,.14,.39,.42,1.18,.59,1.56,.01,.02,.02,.05,.03,.08,.13,.28,.34,.74,.48,.96,.22,.32,.77,.89,1.04,1.17,.31,.33,.95,.95,1.27,1.27,.72,.7,2.18,2.06,2.91,2.75,.31,.29,.95,.87,1.24,1.18,.41,.43,1.19,1.34,1.57,1.8,.38,.45,1.08,1.4,1.45,1.85,.44,.54,1.42,1.54,1.83,2.1,.44,.61,1.14,1.95,1.55,2.59,.68,1.08,2.08,3.21,2.83,4.23,.33,.45,1.02,1.33,1.4,1.74,.5,.53,1.61,1.5,2.18,1.97,.74,.61,2.32,1.7,3.07,2.29,1.3,1.02,3.77,3.19,5.08,4.19,.08,.06,.17,.13,.27,.2,.63,.45,1.61,1.09,2.09,1.48,.62,.5,1.71,1.69,2.35,2.18,.58,.44,1.89,1.11,2.46,1.57,.53,.43,1.45,1.43,1.92,1.93,.49,.53,1.46,1.6,1.91,2.16,.9,1.12,2.53,3.49,3.37,4.66,.34,.47,.94,1.47,1.34,1.88,.19,.2,.64,.54,.88,.67,.36,.19,1.16,.42,1.56,.49,.37,.06,1.14,.02,1.52,.05,.42,.03,1.26,.07,1.66,.2,.34,.11,.93,.5,1.23,.68,.42,.26,1.19,.89,1.62,1.13,.38,.21,1.18,.54,1.58,.69,.51,.2,1.58,.45,2.08,.68,.38,.18,1.17,.55,1.4,.89,.02,.03,.03,.06,.05,.09,.1,.25,.13,.68,.15,.9,.02,.28-.06,.85-.04,1.13,.03,.41,.16,1.22,.27,1.61,.1,.4,.36,1.2,.56,1.56,.17,.31,.66,.84,.9,1.11,.27,.29,.8,.9,1.13,1.12,.24,.16,.78,.38,1.06,.44,.25,.05,.77,.05,1.02,.03,.25-.02,.75-.11,1-.17,.28-.06,.82-.23,1.09-.31,.32-.1,.96-.33,1.3-.39,.42-.08,1.28-.11,1.7-.18,.4-.06,1.2-.23,1.59-.35,.34-.11,.98-.49,1.33-.57,.49-.11,1.49-.05,1.99-.08,.43-.02,1.3-.06,1.73-.12,.54-.07,1.61-.3,2.14-.39,.46-.08,1.38-.28,1.85-.32,.17-.01,.56-.08,.7,.02,.18,.14,.2,.66,.23,.88,.06,.43,0,1.31,0,1.75-.02,.76-.06,2.29-.13,3.05-.04,.41-.05,1.26-.23,1.62-.12,.24-.59,.55-.76,.76-.29,.37-.74,1.2-.99,1.6-.29,.46-.87,1.39-1.17,1.85-.27,.41-.85,1.21-1.11,1.62-.27,.43-.86,1.28-.99,1.77-.12,.44-.03,1.35-.03,1.8,0,.37-.02,1.11,0,1.49,.04,.55,.24,1.64,.31,2.19,.1,.79,.36,2.38,.36,3.19,0,.56-.35,1.67-.28,2.23,.03,.28,.28,.8,.4,1.06,.38,.81,1.37,2.31,1.76,3.12,.48,.98,1.21,3.06,1.7,4.05,.33,.66,1.02,1.98,1.49,2.55,.12,.15,.33,.35,.55,.54,.28,.25,.59,.5,.78,.67,.54,.47,1.65,1.38,2.21,1.82,.62,.49,1.89,1.42,2.52,1.89,.66,.5,1.97,1.54,2.66,2.01,.49,.33,1.56,.88,2.03,1.23,.32,.24,.92,.77,1.16,1.09,.27,.36,.62,1.2,.82,1.6,.42,.86,1.22,2.59,1.6,3.46,.34,.76,1.03,2.26,1.3,3.04,.15,.44,.4,1.36,.46,1.82,.05,.38,.03,1.14,.04,1.52,0,.88-.03,2.64-.06,3.52-.03,.73-.15,2.18-.16,2.91,0,.45-.08,1.38,.06,1.81,.12,.38,.66,1.01,.89,1.34,.21,.3,.67,.86,.87,1.17,.36,.56,1.14,1.67,1.29,2.31,.11,.44,.07,1.37-.06,1.8-.11,.37-.57,.99-.77,1.31-.21,.33-.66,.97-.86,1.31-.44,.73-1.3,2.19-1.62,2.97-.26,.65-.58,2.01-.76,2.68-.2,.74-.55,2.23-.74,2.97-.15,.55-.48,1.65-.63,2.2-.11,.44-.26,1.33-.41,1.75-.14,.41-.55,1.19-.75,1.58-.36,.68-1.14,2.01-1.52,2.69-.73,1.27-2.16,3.83-2.92,5.08-.57,.94-1.76,2.8-2.34,3.73-.47,.76-1.51,2.24-1.88,3.05-.32,.69-.77,2.14-.92,2.88-.25,1.21-.37,3.7-.46,4.93-.12,1.6-.26,4.8-.36,6.39-.12,1.91-.24,5.75-.52,7.64-.07,.48-.26,1.45-.44,1.91-.1,.25-.37,.7-.53,.91-.27,.36-.93,.97-1.24,1.3-.87,.92-2.59,2.78-3.42,3.73-.35,.4-.98,1.25-1.37,1.61-.33,.3-1.04,.86-1.44,1.06-.45,.23-1.44,.43-1.92,.6-.54,.19-1.59,.66-2.13,.86-1.52,.55-4.64,1.42-6.16,1.95-1.48,.51-4.38,1.68-5.85,2.22-.68,.25-2.06,.71-2.75,.95-.95,.34-2.83,1.06-3.78,1.39-.92,.32-2.82,.82-3.72,1.21-.41,.18-1.19,.59-1.55,.85-.52,.38-1.41,1.33-1.84,1.8-.91,.99-2.55,3.15-3.44,4.16-.57,.65-1.78,1.88-2.36,2.51-.28,.3-.88,.86-1.09,1.21-.16,.28-.32,.9-.42,1.21-.24,.75-.65,2.27-.86,3.03-.52,1.87-1.51,5.63-2.01,7.5-.3,1.11-1.04,3.92-1.37,5.18l-248.62,.06-6.01-254.72,52.32,.59h37.37s52.08-.03,52.08-.03Z"/>
        <path class="" d="M286.39,79.13v-.04s-1.61-21.96-1.61-21.96v-.06s-.26-2.18-.39-2.9c-.07-.41-.2-1.25-.35-1.64-.11-.28-.54-.75-.64-1.04,0-.03-.02-.06-.03-.09-.55,.13-1.37,.32-1.73,.41-.52,.12-1.57,.32-2.06,.51-.85,.33-2.42,1.29-3.21,1.75-.58,.34-1.68,1.11-2.27,1.43-.87,.46-2.66,1.28-3.58,1.6-1.11,.39-4.17,1.36-4.17,1.36,0,0-1.8,1-2.37,1.39-.4,.27-1.05,1.02-1.5,1.2-.56,.23-1.82,.05-2.39,.24-.35,.11-.93,.58-1.26,.74-.44,.22-1.89,.73-2.48,.94,.03,.1,.06,.2,.08,.31,.04,.13,.07,.26,.1,.34,.06,.18,.17,.42,.28,.69,.23,.53,.48,1.13,.55,1.56,.04,.24,0,.54-.03,.84-.02,.19-.04,.41-.04,.52,0,.03,0,.07,.01,.1,.04,.36,.18,.98,.27,1.31,.14,.49,.27,.87,.36,1.02,.07,.13,.28,.34,.46,.52,.22,.23,.42,.44,.55,.64,.16,.26,.34,.74,.5,1.16v.02c.03,.05,.05,.11,.08,.18,.18,.49,.35,.95,.37,1.28,.03,.38-.1,1.04-.22,1.36-.07,.18-.21,.36-.35,.54-.08,.11-.2,.27-.23,.33-.12,.31-.24,1.09-.25,1.5,0,.28,.09,.91,.16,1.26,.03,.17,.09,.41,.16,.64,.06,.22,.13,.43,.19,.55,.06,.14,.23,.41,.37,.62,.09,.13,.17,.26,.23,.36,.04,.07,.09,.15,.15,.25,.2,.32,.43,.68,.51,.97,.12,.41,.17,1.23,.07,1.66-.05,.21-.19,.43-.33,.64-.05,.08-.1,.16-.13,.21-.03,.05-.06,.12-.1,.19-.08,.14-.24,.42-.25,.52-.04,.22,.04,.8,.14,1.23,.03,.12,.11,.33,.19,.51,.11,.25,.21,.49,.25,.69,0,.01,.23,1.06,.1,1.61-.08,.36-.43,1.16-.84,1.47-.19,.15-.52,.19-.7,.21-.07,.01-.22,0-.27,.04-.08,.07-.16,.29-.17,.39-.01,.13,.09,.39,.12,.52,.01,.05,.04,.15,.06,.2,0,0,0,.03,0,.04,.05,.2,.15,.61,.23,.78,.04,.09,.15,.25,.25,.4,.15,.23,.31,.46,.38,.66,.11,.33,.15,.92,.16,1.1,0,.13,0,.43-.03,.72,.4,0,1.04,.02,1.34,.05,.45,.05,1.36,.25,1.74,.53,.42,.32,.98,1.24,1.28,1.67,.32,.46,.84,1.49,1.22,1.9,.23,.25,.83,.62,1.08,.85,.26,.25,.7,.82,.96,1.08,.2,.2,.58,.64,.82,.79,.38,.23,1.24,.47,1.67,.55,.38,.07,1.16-.01,1.54,.05,.51,.08,1.51,.36,1.96,.59,.24,.12,.65,.47,.85,.64,.47,.4,1.33,1.29,1.75,1.75,.3,.34,.76,1.17,1.15,1.41,.39,.24,1.32,.33,1.77,.38,.31,.03,.94-.02,1.25-.02,.62,0,1.86,.01,2.48,.08,.35,.04,1.03,.18,1.36,.28,.54,.16,1.61,.54,2.1,.8,.41,.22,1.09,.87,1.51,1.07,.23,.11,.73,.28,.98,.3,.05,0,.1,0,.16,0l-2.34-31.29Z"/>
        <path class="" d="M259.58,87.7c-.03-.12-.12-.34-.2-.54-.1-.24-.2-.46-.24-.65-.04-.18-.24-1.07-.15-1.58,.04-.23,.18-.49,.35-.8,.04-.06,.07-.12,.09-.16,.04-.08,.1-.18,.17-.28,.07-.11,.19-.3,.21-.37,.06-.25,.03-.92-.06-1.22-.05-.17-.26-.51-.41-.74-.07-.1-.13-.2-.17-.27-.05-.08-.12-.2-.21-.33-.17-.26-.35-.53-.44-.74-.15-.34-.33-1.02-.4-1.37-.07-.36-.19-1.07-.18-1.46,0-.45,.13-1.35,.3-1.8,.07-.18,.21-.36,.35-.54,.06-.07,.13-.17,.18-.25,.02-.04,.04-.06,.05-.08,.09-.23,.18-.76,.16-.98-.02-.23-.21-.76-.32-1.04-.03-.07-.05-.13-.07-.19v-.02c-.1-.24-.3-.79-.43-1-.07-.12-.26-.32-.43-.49-.24-.24-.46-.47-.58-.69-.13-.22-.28-.64-.44-1.23-.11-.39-.28-1.17-.31-1.58-.01-.19,.01-.43,.04-.68,.02-.22,.05-.5,.03-.62-.05-.32-.29-.89-.49-1.35-.12-.28-.23-.54-.3-.74-.04-.11-.07-.25-.11-.4-.05-.21-.13-.52-.2-.63-.06-.11-.32-.36-.45-.48-.04-.04-.08-.08-.11-.11-.07-.07-.18-.16-.3-.26-.2-.17-.4-.34-.53-.49-.1-.12-.19-.27-.29-.44-.07-.12-.19-.33-.25-.38-.04-.03-.2-.09-.3-.12-.19-.07-.38-.13-.52-.24-.24-.18-.65-.63-.8-.94-.11-.21-.16-.52-.21-.81-.02-.13-.05-.25-.07-.33,0,0,0-.01,0-.02-.1-.08-.47-.02-.53-.02-.06,0-.19,.03-.29,.05-.1,.02-.2,.04-.27,.05-.41,.06-.66,.09-.82,.1-.1,0-.21,0-.33-.02-.06,0-.15-.01-.19-.01-.07,0-.24,.04-.37,.07-.24,.05-.49,.1-.7,.1,0,0-.02,0-.03,0-.2,0-.55-.06-.78-.16-.4-.18-.96-.65-1.19-.91-.15-.17-.3-.43-.44-.68-.06-.11-.13-.23-.17-.29-.02-.02-.05-.07-.06-.1-.11-.16-.33-.51-.44-.61-.09-.09-.37-.28-.67-.46,0,0-.01,0-.02,0-.38-.23-.53-.3-.58-.31-.08-.02-.37-.02-.5-.01-.11,0-.21,0-.29,0-.08,0-.17-.01-.27-.02-.1,0-.29-.05-.38-.02-.05,.01-.12,.07-.17,.1-.16,.1-.32,.21-.51,.26-.19,.05-.42,.05-.7,.04-.06,0-.11,0-.15,0-.02,0-.07,0-.11,.01-.25,.03-.59,.07-.88-.12-.19-.12-.29-.31-.35-.49,0,0-.01,0-.02,0l-17.59,13.45-20.51,12.38-33.97,31.13-36.44,7.21-19.45,38.93,52.08-.02,4.46-10.01,15.92-7.01,16.67-11.07,2.96-8.91,3.65-10.96,3.76-11.29,15.89-16.19,12.14-6.92,11.67,.31,1.44,7.87,1.03,5.63c.2-.04,.44-.08,.56-.08,.19,0,.56,.07,.74,.13,.17,.06,.49,.24,.65,.34,.23,.14,.6,.55,.85,.64,.15,.05,.48-.02,.63,.02,.23,.06,.65,.31,.84,.47,.11,.09,.25,.29,.36,.43,0-.04,0-.09,0-.13,.03-.26,.22-.76,.49-.97,.2-.16,.46-.19,.72-.22,.09-.01,.22-.03,.28-.05,.16-.14,.44-.67,.5-.96,.05-.22-.02-.83-.1-1.24Z"/>
        <path class="" d="M221.75,68.23l-20.51,12.38-33.97,31.13-36.44,7.21-19.45,38.93h-37.37s-52.32-.57-52.32-.57l-1.25-53.17-9.99-13.44,1.03-11.44-4.76-12.86,.25-7.21,10.68-18.91-5.32-6.64-1.33-21.01L20.8,2.98s.41,.29,.51,.42c.16,.21,.3,.74,.46,.95,.15,.19,.61,.4,.77,.58,.22,.25,.47,.91,.69,1.16,.32,.35,1.1,.91,1.51,1.16,.52,.32,1.61,.94,2.21,1.06,.79,.17,2.43-.09,3.24-.12,.94-.04,2.81-.1,3.74-.19,1.17-.12,3.52-.41,4.66-.69,1.03-.25,3.04-.94,4.01-1.35,.56-.23,1.64-.8,2.17-1.09,.4-.22,1.11-.83,1.55-.94,.79-.18,2.42,.24,3.23,.28,.36,.02,1.08-.03,1.43,.05,.58,.13,1.63,.71,2.19,.92,.43,.16,1.27,.59,1.73,.58,.4,0,1.11-.43,1.48-.56,.26-.09,.76-.34,1.03-.34,.31,0,.91,.21,1.18,.36,.31,.17,.82,.67,1.08,.91,.26,.24,.69,.81,.99,.99,.45,.27,1.5,.52,2.02,.62,.49,.1,1.49,.12,1.98,.21,.54,.1,1.59,.51,2.14,.57,.69,.07,2.08-.13,2.78-.14,.34,0,1.06-.11,1.37,.05,.3,.15,.6,.83,.84,1.08,.13,.14,.41,.43,.6,.49,.23,.07,.74,0,.97-.08,.22-.09,.52-.51,.75-.59,.21-.07,.66-.04,.88,0,.6,.12,1.66,.87,2.27,.95,.4,.05,1.19-.12,1.58-.21,.35-.08,1.04-.29,1.36-.45,.22-.11,.57-.52,.81-.58,.37-.11,1.17,0,1.54,.11,.45,.14,1.28,.67,1.63,.99,.34,.3,.73,1.16,1.09,1.43,.23,.18,.81,.38,1.09,.45,.55,.12,1.69,.18,2.24,.11,.36-.05,1.1-.22,1.39-.45,.18-.14,.27-.67,.46-.8,.32-.2,1.13-.24,1.49-.15,.23,.06,.61,.37,.8,.52,.28,.22,.82,.72,1.05,1,.23,.29,.53,.98,.77,1.25,.22,.25,.73,.74,1.05,.82,.2,.05,.63-.05,.82-.12,.21-.08,.53-.41,.75-.47,.3-.09,.95-.07,1.25,.01,.39,.1,1.1,.51,1.4,.78,.21,.18,.4,.76,.64,.9,.3,.16,1.03,.11,1.37,.08,.37-.04,1.14-.18,1.44-.39,.22-.15,.38-.72,.61-.85,.34-.19,1.22-.33,1.55-.12,.22,.14,.37,.71,.38,.97,0,.36-.47,1.02-.46,1.38,.02,.33,.32,.97,.54,1.21,.15,.17,.63,.28,.8,.44,.31,.27,.69,1.02,.95,1.34,.28,.34,.8,1.14,1.21,1.29,.39,.14,1.23-.16,1.64-.18,.62-.02,1.86,.01,2.48,.08,.54,.06,1.64,.16,2.12,.42,.23,.13,.51,.61,.73,.75,.27,.17,.89,.39,1.21,.39,.3,0,.87-.22,1.15-.34,.27-.11,.81-.37,1.01-.58,.16-.17,.24-.71,.44-.83,.24-.15,.88-.13,1.14-.02,.28,.12,.56,.78,.85,.87,.24,.08,.79-.03,1-.17,.19-.13,.31-.64,.49-.77,.23-.16,.82-.35,1.09-.28,.31,.08,.73,.63,.93,.88,.28,.34,.71,1.1,.91,1.49,.23,.45,.5,1.44,.78,1.86,.19,.29,.65,.83,.96,.99,.34,.18,1.13,.24,1.51,.28,.56,.06,1.69,.16,2.24,.08,.39-.06,1.09-.44,1.48-.53,.64-.15,1.95-.38,2.61-.32,.95,.09,2.7,.96,3.64,1.17,.46,.1,1.4,.31,1.86,.24,.31-.05,.86-.39,1.13-.54,.33-.19,.94-.62,1.25-.83,.35-.24,.97-.85,1.38-.97,.47-.15,1.49,0,1.98,.04,.48,.04,1.49,.06,1.92,.3,.33,.19,.69,.92,.98,1.17,.25,.22,.82,.59,1.14,.68,.31,.09,.96,.05,1.28,.01,.25-.03,.74-.26,1-.23,.27,.03,.81,.26,.98,.47,.13,.16,.09,.61,.18,.79,.08,.17,.32,.47,.48,.57,.25,.16,.84,.31,1.13,.3,.19,0,.53-.17,.71-.24,.21-.08,.6-.35,.83-.35,.4,0,1.19,.31,1.5,.58,.18,.16,.28,.68,.47,.83,.35,.28,1.29,.44,1.73,.5,.34,.04,1.03-.1,1.37-.04,.31,.06,1.01,.21,1.18,.48,.22,.34-.17,1.24-.06,1.63,.09,.31,.48,.89,.75,1.07,.42,.3,1.55,.27,2,.53,.32,.19,.74,.84,1.04,1.05,.44,.3,1.43,.74,1.96,.85,.43,.1,1.34,.02,1.78,.06,.7,.07,2.08,.42,2.79,.44,.57,.02,1.72-.1,2.28-.21,.57-.11,1.67-.54,2.24-.68,.96-.24,2.99-.34,3.88-.77,.67-.33,1.65-1.49,2.24-1.95,.36-.28,1.15-.74,1.49-1.04,.44-.38,1.13-1.34,1.6-1.68,.51-.36,1.76-.7,2.28-1.04,.11-.07,.23-.16,.36-.27l2.31,24.51,.49,5.16,28.48,10.73s.04,.02,.12,.06Z"/>
        <path class="" d="M409.48,88.73s-.74,.8-1,1.06c-.31,.31-.99,.88-1.27,1.22-.28,.35-.68,1.16-.93,1.54-.18,.27-.51,.84-.74,1.07-.15,.15-.6,.32-.72,.5-.17,.25-.29,.87-.26,1.17,.03,.33,.46,.88,.53,1.2,.11,.55,.15,1.7-.03,2.23-.15,.42-.77,1.1-1.1,1.4-.26,.23-.91,.51-1.16,.75-.28,.26-.84,.86-.92,1.24-.06,.27,.29,.81,.25,1.09-.03,.3-.52,.77-.53,1.07-.01,.3,.26,.89,.44,1.14,.21,.28,.88,.59,1.09,.87,.22,.29,.51,.97,.57,1.33,.05,.27,.04,.83-.07,1.07-.09,.2-.45,.49-.62,.63-.19,.17-.64,.42-.81,.61-.15,.18-.4,.59-.44,.81-.05,.29,.07,.89,.19,1.16,.09,.19,.44,.46,.53,.64,.13,.25,.32,.82,.31,1.1-.01,.28-.24,.82-.39,1.06-.1,.15-.34,.43-.5,.51-.2,.1-.68,.02-.88,.12-.2,.1-.55,.44-.63,.65-.1,.23-.09,.75-.03,.99,.07,.3,.43,.83,.62,1.08,.13,.18,.49,.46,.6,.65,.11,.18,.31,.57,.29,.78-.02,.24-.28,.7-.49,.81-.16,.09-.54-.07-.71-.02-.21,.05-.66,.21-.74,.41-.08,.2,.25,.62,.26,.84,0,.15-.04,.47-.11,.61-.14,.29-.75,.66-.85,.96-.07,.2-.02,.67,.07,.86,.03,.07,.2,.15,.23,.23,.07,.21,.02,.7-.1,.88-.09,.15-.43,.33-.6,.37-.2,.05-.65-.14-.82-.03-.14,.09-.21,.46-.24,.62-.06,.28-.14,.87-.04,1.13,.09,.24,.49,.58,.69,.74,.17,.14,.58,.31,.74,.46,.14,.13,.37,.46,.44,.64,.08,.21,.14,.68,.13,.91-.01,.25-.13,.76-.25,.98-.09,.16-.32,.48-.49,.55-.19,.08-.64,.07-.82-.03-.17-.09-.4-.42-.45-.6-.05-.19,.18-.61,.1-.8-.06-.14-.36-.31-.51-.34-.22-.04-.71,.05-.87,.2-.15,.15-.19,.62-.2,.84-.03,.34,.06,1.03,.1,1.37,.03,.24,.14,.72,.14,.97,0,.26-.14,.78-.15,1.04,0,.16-.07,.5,.02,.63,.07,.09,.34,.1,.43,.17,.12,.09,.35,.33,.38,.48,.03,.17-.07,.52-.18,.65-.1,.11-.41,.19-.56,.21-.23,.04-.72-.1-.95-.03-.14,.04-.38,.23-.48,.35-.12,.15-.3,.51-.33,.7-.06,.37,.11,1.11,.2,1.48,.07,.28,.23,.85,.37,1.1,.11,.19,.45,.5,.56,.69,.19,.33,.47,1.05,.54,1.43,.06,.34-.09,1.05-.02,1.4,.07,.36,.41,1.03,.58,1.36,.11,.22,.4,.63,.51,.85,.18,.37,.5,1.14,.6,1.53,.08,.3,.22,.93,.18,1.24-.03,.21-.21,.6-.35,.76-.13,.16-.54,.31-.66,.47-.17,.24-.37,.84-.32,1.12,.04,.21,.35,.54,.52,.67,.12,.09,.46,.12,.56,.24,.11,.13,.15,.5,.14,.67-.03,.35-.35,.99-.53,1.29-.16,.28-.57,.8-.81,1.02-.15,.14-.5,.37-.67,.49-.18,.12-.59,.26-.73,.43-.14,.16-.24,.59-.29,.79-.05,.22-.01,.7-.1,.91-.08,.2-.38,.53-.55,.67-.17,.13-.61,.22-.76,.37-.13,.13-.28,.47-.33,.64-.06,.2,.07,.7-.09,.84-.11,.1-.47-.09-.6-.02-.14,.07-.32,.38-.35,.54-.03,.15,.01,.51,.13,.62,.11,.11,.46,.05,.61,.09,.11,.03,.33,.12,.42,.19,.12,.1,.31,.35,.35,.49,.04,.15,.04,.48-.02,.62-.07,.18-.33,.49-.5,.57-.17,.07-.56,.04-.73-.02-.28-.1-.75-.48-.94-.7-.15-.18-.33-.63-.42-.84-.1-.21-.21-.66-.35-.84-.1-.13-.38-.3-.53-.37-.19-.08-.62-.17-.83-.16-.19,.01-.55,.19-.74,.25-.18,.06-.52,.23-.71,.27-.2,.04-.63,.02-.83,.02-.28,0-.87,.05-1.14-.05-.29-.11-.71-.6-.94-.8-.28-.25-.8-.8-1.09-1.04-.38-.32-1.15-.94-1.58-1.17-.35-.19-1.11-.47-1.5-.58-.24-.07-.77-.08-1-.19-.21-.1-.59-.4-.72-.59-.13-.19-.1-.71-.25-.88-.21-.22-.84-.41-1.15-.43-.23-.02-.67,.16-.9,.17-.22,0-.68-.03-.87-.14-.36-.2-.82-.92-1.05-1.26-.22-.32-.56-1.03-.76-1.36-.17-.27-.46-.84-.71-1.03-.24-.18-.85-.32-1.15-.39-.3-.07-.95-.06-1.24-.17-.19-.08-.54-.33-.68-.48-.22-.23-.59-.77-.71-1.07-.13-.32-.12-1.02-.24-1.34-.09-.25-.33-.77-.54-.94-.17-.14-.64-.19-.84-.27-.2-.07-.63-.18-.78-.33-.15-.17-.27-.63-.28-.86,0-.26,.25-.74,.27-1,.02-.21,.03-.64-.06-.83-.08-.16-.36-.4-.51-.5-.2-.14-.69-.28-.91-.4-.23-.13-.7-.38-.88-.58-.18-.19-.38-.68-.49-.91-.16-.34-.29-1.12-.54-1.39-.35-.37-1.41-.6-1.85-.85-.53-.29-1.49-1.05-2.03-1.31-.4-.19-1.29-.34-1.67-.56-.35-.2-.93-.79-1.21-1.09-.2-.22-.61-.67-.73-.94-.16-.34-.2-1.12-.34-1.47-.09-.22-.32-.66-.5-.82-.17-.16-.63-.29-.82-.42-.2-.13-.57-.45-.74-.62-.24-.23-.7-.71-.91-.97-.32-.39-.89-1.22-1.19-1.61-.22-.29-.66-.85-.9-1.12-.14-.16-.41-.5-.59-.61-.17-.1-.57-.28-.76-.22-.15,.05-.24,.45-.39,.51-.22,.08-.72-.05-.91-.18-.18-.12-.41-.51-.46-.71-.05-.25,.15-.75,.17-1,.02-.36,.04-1.1-.08-1.44-.08-.24-.51-.59-.58-.83-.08-.27-.05-.86,.04-1.13,.07-.23,.45-.58,.53-.81,.08-.22,.13-.7,.1-.94-.04-.28-.29-.8-.4-1.06-.17-.4-.57-1.17-.73-1.58-.16-.4-.47-1.22-.58-1.64-.12-.46-.28-1.4-.33-1.87-.05-.51-.08-1.54-.08-2.06,0-.4,.04-1.21,.05-1.61,.01-.35,.09-1.07,.05-1.42-.02-.17-.1-.52-.2-.66-.08-.13-.37-.31-.47-.43-.13-.15-.28-.53-.41-.67-.16-.16-.54-.42-.75-.48-.29-.09-.91,.01-1.2-.06-.36-.09-1.06-.4-1.36-.64-.22-.17-.54-.64-.69-.88-.14-.21-.29-.72-.45-.91-.17-.2-.63-.47-.85-.62-.26-.17-.78-.53-1.07-.63-.16-.05-.5-.03-.65-.09-.23-.08-.66-.36-.84-.53-.18-.17-.42-.6-.56-.81-.17-.24-.47-.75-.67-.96-.14-.15-.46-.4-.64-.5-.26-.15-.82-.33-1.1-.43-.2-.07-.61-.18-.8-.27-.23-.1-.7-.31-.86-.51-.14-.17-.26-.62-.26-.84,0-.22,.38-.64,.29-.84-.08-.17-.52-.26-.71-.29-.19-.02-.57,.16-.75,.11-.17-.05-.44-.32-.53-.48-.1-.17-.15-.56-.17-.75-.04-.43,0-1.31,.06-1.74,.04-.27,.2-.78,.25-1.04,.05-.25,.26-.76,.17-1-.08-.2-.48-.41-.66-.52-.18-.11-.55-.3-.75-.35-.24-.06-.78-.14-1.01-.03-.17,.08-.32,.49-.48,.59-.14,.1-.49,.22-.66,.22-.2,0-.62-.12-.78-.24-.18-.14-.38-.58-.45-.8-.1-.3-.17-.94-.15-1.25,.02-.26,.2-.76,.25-1.02,.08-.4,.32-1.22,.25-1.63-.03-.15-.12-.35-.24-.54l82.15-1.73c.34,1.14,1.1,3.79,1.1,3.79Z"/>
        <path class="" d="M307.5,22c0,.26-.04,.79-.08,1.05-.04,.26-.09,.76-.07,1.02,.03,.29,.01,1.02,.28,1.14,.21,.09,.64-.28,.8-.45,.13-.14,.28-.5,.36-.67,.08-.19,.2-.57,.26-.76,.06-.2,.1-.63,.22-.81,.1-.16,.42-.39,.59-.49,.23-.15,.81-.26,.99-.46,.15-.17,.19-.68,.18-.91-.02-.22-.16-.66-.29-.84-.13-.18-.57-.35-.71-.52-.09-.1-.19-.36-.25-.49-.07-.15-.17-.49-.27-.62-.07-.09-.19-.21-.32-.32l.49-.87c.18,.14,.35,.27,.48,.35,.35,.24,1.14,.57,1.47,.84,.27,.22,.7,.77,.94,1.02,.27,.28,.78,.88,1.1,1.1,.19,.13,.62,.27,.83,.35,.33,.12,1.02,.26,1.34,.38,.34,.12,.97,.51,1.32,.6,.42,.1,1.3,.21,1.72,.1,.32-.08,.8-.58,1.1-.69,.33-.12,1.07-.07,1.41-.19,.29-.1,.8-.48,1.07-.63,.4-.22,1.22-.59,1.6-.83,.51-.33,1.42-1.13,1.92-1.48,.83-.58,2.56-1.63,3.4-2.18,.44-.29,1.3-.87,1.73-1.16,.57-.38,1.66-1.27,2.3-1.52,.52-.21,1.58-.14,2.1-.12,.61,.03,1.83,.07,2.43,.1,.41,.02,1.18,.06,1.61,.17,.39,.1,1.18,.23,1.56,.34,.28,.08,.93,.18,1.1,.42,.1,.15,.07,.56,0,.73-.06,.17-.32,.48-.49,.57-.26,.13-.77,0-1.08-.11-.47-.18-1.43-.55-1.93-.66-.64-.15-1.97-.1-2.62-.09-.47,0-1.43-.03-1.87,.14-.46,.18-1.15,.95-1.56,1.23-.32,.21-.99,.57-1.34,.74-.37,.18-1.14,.47-1.51,.65-.47,.22-1.4,.69-1.84,.96-.27,.16-.76,.55-1.02,.72-.35,.24-1.08,.68-1.43,.91-.3,.2-.87,.64-1.2,.8-.25,.13-.82,.24-1.06,.37-.22,.12-.56,.5-.78,.61-.29,.16-.96,.29-1.27,.42-.25,.11-.9,.25-.98,.52-.05,.18,.22,.55,.39,.65,.25,.15,.88,.11,1.16,.07,.25-.03,.72-.22,.94-.32,.31-.13,.89-.48,1.19-.63,.41-.2,1.21-.64,1.66-.73,.24-.05,.72,.03,.96,.03,.25,0,.81,.18,.99,0,.11-.11-.08-.49,.02-.61,.16-.2,.75-.31,1-.26,.2,.04,.58,.32,.62,.52,.06,.26-.41,.71-.44,.97-.02,.14,0,.46,.1,.56,.23,.21,.94,.08,1.25,.1,.27,.02,.87,.2,1.08,.04,.18-.14,.03-.72,.18-.9,.14-.17,.62-.25,.83-.32,.2-.07,.67-.09,.83-.23,.16-.15,.28-.61,.32-.83,.04-.19,.08-.61,0-.79-.08-.16-.4-.39-.57-.46-.25-.1-.84-.19-1.08-.07-.16,.09-.23,.52-.37,.63-.16,.12-.57,.22-.77,.21-.2-.01-.63-.14-.72-.32-.11-.2,0-.72,.15-.9,.19-.22,.84-.28,1.12-.37,.22-.07,.68-.16,.88-.26,.25-.12,.68-.5,.93-.64,.18-.1,.57-.29,.77-.35,.17-.05,.53-.11,.7-.09,.26,.03,.83,.14,.98,.35,.16,.24,.02,.88-.04,1.16-.06,.27-.3,.78-.41,1.03-.1,.22-.38,.62-.44,.86-.06,.28-.04,.86,.02,1.14,.03,.13,.11,.4,.22,.47,.25,.19,.93,.16,1.25,.16,.3,0,.96,.04,1.2-.13,.17-.12,.18-.62,.35-.74,.27-.2,1.05-.02,1.35-.19,.28-.15,.53-.83,.82-.96,.23-.11,.77-.03,1.02,0,.21,.03,.61,.16,.81,.23,.29,.11,.93,.26,1.12,.5,.09,.12,.02,.48,.13,.59,.08,.08,.32,.15,.43,.13,.15-.03,.45-.22,.51-.36,.11-.24-.13-.79-.14-1.05-.01-.2-.09-.65,.03-.81,.13-.19,.61-.31,.83-.35,.35-.06,1.07,.04,1.43,.08,.46,.05,1.37,.35,1.83,.3,.3-.03,.81-.39,1.1-.46,.23-.05,.82,.14,.96-.05,.13-.18-.08-.72-.23-.88-.23-.25-.97-.34-1.3-.42-.49-.12-1.51-.21-2-.36-.47-.14-1.33-.61-1.77-.82-.24-.11-.73-.36-.98-.46-.2-.08-.68-.24-.75-.44-.04-.12,.02-.4,.1-.49,.14-.15,.6-.16,.8-.23,.15-.06,.43-.29,.59-.3,.29-.03,.83,.23,1.1,.33,.26,.1,.75,.36,1.01,.47,.42,.19,1.25,.58,1.67,.76,.45,.19,1.37,.53,1.81,.73,.2,.09,.58,.29,.78,.38,.14,.07,.42,.22,.58,.25,.28,.07,.85,.09,1.14,.07,.3-.02,.89-.16,1.18-.25,.48-.15,1.4-.55,1.86-.75,.7-.31,2.06-1.05,2.76-1.36,.41-.18,1.26-.52,1.69-.67,.73-.25,2.27-.57,2.98-.89,1.02-.46,2.88-1.7,3.78-2.35,.83-.59,2.4-1.89,3.18-2.54,.62-.52,2.44-2.13,2.44-2.13l17.63,34.87,.02,5.33,2.39-.03v4.31s5.64,10.82,5.64,10.82c0,0,2.73,5.06,3.62,6.76,.62,1.19,1.81,3.59,2.43,4.77,.48,.9,1.53,2.67,1.98,3.59,.27,.57,.77,1.73,.97,2.33,.14,.42,.32,1.3,.44,1.73,.25,.9,.81,2.67,1.08,3.56,.02,.06,.04,.13,.06,.2l-82.15,1.73c-.17-.29-.38-.59-.48-.79-.09-.18-.18-.6-.35-.71-.24-.16-.9,.08-1.16-.04-.2-.09-.46-.46-.57-.65-.1-.18-.22-.59-.24-.79-.04-.39,.1-1.18,.16-1.57,.04-.25,.18-.74,.21-1,.04-.37,.06-1.11,.05-1.48,0-.34,.03-1.04-.09-1.36-.1-.28-.49-.76-.71-.96-.16-.15-.6-.31-.75-.46-.14-.14-.28-.54-.41-.69-.12-.13-.46-.26-.58-.39-.12-.13-.33-.45-.37-.62-.08-.32-.02-1,.05-1.33,.03-.14,.16-.4,.19-.54,.04-.17,.12-.53,.07-.7-.05-.17-.29-.45-.44-.54-.17-.11-.61-.08-.76-.2-.13-.1-.2-.45-.31-.58-.14-.16-.55-.34-.68-.5-.01-.02-.03-.04-.04-.07,0,0,0,0,0,0-.08-.15-.15-.39-.19-.52-.08-.28-.16-.84-.2-1.13-.04-.39-.11-1.18-.06-1.57,.04-.34,.3-.98,.37-1.31,.07-.39,.12-1.17,.14-1.57,.02-.25,.02-.75,.03-1,.02-.3,.11-.9,.1-1.2-.01-.24-.13-.7-.16-.94-.03-.25-.05-.77-.07-1.02-.01-.26,0-.77-.04-1.02-.04-.25-.16-.77-.3-.99-.1-.16-.43-.37-.55-.51-.13-.16-.28-.55-.41-.71-.22-.26-.75-.7-1.02-.91-.23-.17-.7-.51-.96-.63-.2-.09-.62-.2-.84-.25-.23-.04-.7-.05-.93-.09-.22-.04-.67-.14-.87-.25-.12-.06-.28-.19-.43-.32,.02-.04,.04-.08,.05-.1,.05-.1,.15-.28,.17-.39,.02-.08,.02-.25,.01-.33-.01-.17-.11-.5-.14-.67-.02-.15-.02-.46-.05-.61-.04-.17-.15-.51-.24-.66-.12-.19-.5-.47-.63-.65-.12-.16-.29-.54-.41-.7-.15-.19-.49-.53-.69-.66-.2-.13-.65-.33-.89-.37-.12-.02-.37,.05-.5,.06-.06,0-.18,0-.28,0-.03-.16-.05-.32-.07-.43-.05-.33-.05-1.01-.13-1.34-.06-.26-.33-.75-.37-1.02-.05-.33,.12-1,.05-1.32-.05-.23-.28-.66-.44-.83-.13-.15-.53-.28-.66-.43-.13-.16-.26-.55-.28-.75-.02-.19,.03-.59,.1-.77,.06-.16,.32-.41,.41-.55,.15-.22,.49-.63,.56-.88,.09-.34-.07-1.05-.07-1.4,0-.42,.07-1.25,.11-1.67,.03-.27,.17-.8,.18-1.07,.01-.39-.06-1.18-.15-1.56-.05-.24-.2-.71-.33-.91-.12-.18-.51-.41-.65-.58-.13-.16-.34-.52-.43-.71-.08-.19-.21-.59-.24-.79-.05-.45,.09-1.36,.12-1.82,.02-.38,.11-1.16,.07-1.54-.02-.21-.18-.62-.21-.84-.04-.27-.04-.81-.04-1.08,0-.35,.04-1.06,.05-1.41,0-.27,.04-.82,.04-1.09,0-.36-.04-1.08-.1-1.43-.05-.32-.28-.92-.34-1.23-.06-.31-.12-.85-.14-1.3l1.34,.05s0,.01,0,.01c.01,.27,.08,.8,.08,1.06Z"/>
      </g>
    </g>
  </g>
</svg>