<?xml version="1.0" encoding="UTF-8"?>
<svg id="Layer_2" data-name="Layer 2" xmlns="http://www.w3.org/2000/svg" viewBox="0 0 19.68 19.67">
  <defs>
    <style>
      .cls-1 {
        fill: #e9b15c;
      }
    </style>
  </defs>
  <g id="Layer_1-2" data-name="Layer 1">
    <path class="cls-1" d="M18.96,7.42L12.74,1.2c-1.6-1.6-4.2-1.6-5.8,0L.72,7.42C.26,7.88,0,8.51,0,9.16v8.05C0,18.57,1.1,19.67,2.46,19.67h14.76c1.36,0,2.46-1.1,2.46-2.46V9.16c0-.65-.26-1.28-.72-1.74Zm-6.66,10.61H7.38v-3.23c0-1.36,1.1-2.46,2.46-2.46s2.46,1.1,2.46,2.46v3.23Zm5.74-.82c0,.45-.37,.82-.82,.82h-3.28v-3.23c0-2.26-1.84-4.1-4.1-4.1s-4.1,1.84-4.1,4.1v3.23H2.46c-.45,0-.82-.37-.82-.82V9.16c0-.22,.09-.43,.24-.58L8.1,2.36c.96-.96,2.52-.96,3.48,0l6.22,6.22c.15,.15,.24,.36,.24,.58v8.05Z"/>
  </g>
</svg>