<?xml version="1.0" encoding="UTF-8"?>
<svg id="Layer_2" data-name="Layer 2" xmlns="http://www.w3.org/2000/svg" viewBox="0 0 18.76 19.69">
  <defs>
    <style>
      .cls-1 {
        fill: #e9b15c;
      }
    </style>
  </defs>
  <g id="Layer_1-2" data-name="Layer 1">
    <g id="_01_align_center" data-name=" 01 align center">
      <path class="cls-1" d="M18.67,13.29l-2.13-7.69C15.41,1.54,11.2-.85,7.13,.28,4.41,1.03,2.32,3.23,1.71,5.99L.06,13.42c-.29,1.33,.54,2.64,1.87,2.94,.17,.04,.35,.06,.53,.06h2.96c.45,2.22,2.62,3.65,4.83,3.2,1.61-.33,2.88-1.59,3.2-3.2h2.85c1.36,0,2.46-1.1,2.46-2.46,0-.22-.03-.44-.09-.66h0Zm-9.23,4.76c-1.04,0-1.96-.66-2.31-1.64h4.62c-.35,.98-1.27,1.64-2.31,1.64Zm7.52-3.6c-.16,.21-.4,.33-.66,.32H2.46c-.45,0-.82-.37-.82-.82,0-.06,0-.12,.02-.18l1.65-7.42c.72-3.24,3.93-5.28,7.16-4.56,2.16,.48,3.89,2.12,4.48,4.25l2.13,7.69c.07,.25,.02,.51-.13,.72Z"/>
    </g>
  </g>
</svg>