<?xml version="1.0" encoding="UTF-8"?>
<svg id="Layer_2" data-name="Layer 2" xmlns="http://www.w3.org/2000/svg" viewBox="0 0 13.76 18.46">
  <defs>
    <style>
      .cls-1 {
        fill: #e9b15c;
      }
    </style>
  </defs>
  <g id="Layer_1-2" data-name="Layer 1">
    <g>
      <path class="cls-1" d="M0,11.58c0,2.07,1.68,3.74,3.75,3.75h7.91l-2.08,2.08c-.24,.24-.25,.63-.02,.87,.24,.24,.63,.25,.87,.02,0,0,.01-.01,.02-.02l3.13-3.13c.24-.24,.24-.63,0-.87l-3.13-3.13c-.24-.24-.63-.23-.87,.02-.23,.24-.23,.62,0,.85l2.08,2.08H3.75c-1.39,0-2.51-1.13-2.52-2.52v-3.13c0-.34-.28-.62-.62-.62S0,8.1,0,8.44v3.13Z"/>
      <path class="cls-1" d="M4.18,.18c-.24-.24-.63-.24-.87,0L.18,3.31c-.24,.24-.24,.63,0,.87l3.13,3.13c.24,.24,.63,.23,.87-.02,.23-.24,.23-.62,0-.85l-2.08-2.08h7.91c1.39,0,2.51,1.13,2.52,2.52v3.13c0,.34,.28,.62,.62,.62s.62-.28,.62-.62v-3.13c0-2.07-1.68-3.74-3.75-3.75H2.1L4.18,1.05c.24-.24,.24-.63,0-.87h0Z"/>
    </g>
  </g>
</svg>