<?xml version="1.0" encoding="UTF-8"?>
<svg id="Layer_2" data-name="Layer 2" xmlns="http://www.w3.org/2000/svg" viewBox="0 0 22.33 19.4">
  <defs>
    <style>
      .cls-1 {
        fill: #ea5f28;
        stroke: #ea5f28;
        stroke-miterlimit: 10;
        stroke-width: .28px;
      }
    </style>
  </defs>
  <g id="Layer_1-2" data-name="Layer 1">
    <g id="Page-1">
      <g id="_042---Education" data-name="042---Education">
        <path id="Shape" class="cls-1" d="M21.55,4.68L11.97,.32c-.51-.23-1.1-.23-1.61,0L.78,4.68c-.39,.17-.64,.55-.64,.97s.25,.8,.64,.97l3.04,1.38v4.99c0,.85,.55,1.61,1.47,2.22v1.14c-.72,.19-1.18,.87-1.09,1.61,.09,.73,.72,1.28,1.46,1.28s1.36-.55,1.46-1.28-.37-1.42-1.09-1.61v-.71c1.62,.72,3.37,1.07,5.14,1.03,4.12,0,7.35-1.61,7.35-3.67v-4.99l3.04-1.38c.39-.17,.64-.55,.64-.97s-.25-.8-.64-.97h0ZM6.39,17.78c0,.41-.33,.73-.73,.73s-.73-.33-.73-.73,.33-.73,.73-.73,.73,.33,.73,.73Zm-1.84-4.78v-4.66l.73,.34v5.64c-.43-.31-.7-.79-.73-1.32Zm13.23,0c0,1.59-3.03,2.94-6.61,2.94-2.05,0-3.92-.44-5.14-1.12v-5.81l4.34,1.98c.51,.23,1.1,.23,1.61,0l5.81-2.65v4.66h0Zm3.47-7.05l-9.58,4.37c-.32,.14-.68,.14-1,0l-4.16-1.9,3.24-1.64c.44,.23,.93,.35,1.42,.34,1.24,0,2.2-.65,2.2-1.47s-.97-1.47-2.2-1.47-2.2,.65-2.2,1.47c0,.22,.07,.43,.19,.61l-3.51,1.77L1.08,5.96c-.13-.05-.21-.17-.21-.3s.08-.25,.21-.3L10.66,.99c.32-.14,.68-.14,1,0l9.58,4.37c.13,.05,.21,.17,.21,.3s-.08,.25-.21,.3h0Zm-11.55-.3c0-.35,.63-.73,1.47-.73s1.47,.39,1.47,.73-.63,.73-1.47,.73-1.47-.39-1.47-.73Z"/>
      </g>
    </g>
  </g>
</svg>