<?xml version="1.0" encoding="UTF-8"?>
<svg id="Layer_2" data-name="Layer 2" xmlns="http://www.w3.org/2000/svg" viewBox="0 0 19.68 19.68">
  <defs>
    <style>
      .cls-1 {
        fill: #e9b15c;
      }
    </style>
  </defs>
  <g id="Layer_1-2" data-name="Layer 1">
    <g>
      <path class="cls-1" d="M17.43,19.68H2.26c-1.24,0-2.26-1.01-2.26-2.26V5.54c0-1.24,1.01-2.26,2.26-2.26h2.87c.34,0,.62,.28,.62,.62s-.28,.62-.62,.62H2.26c-.57,0-1.03,.46-1.03,1.03v11.89c0,.56,.46,1.03,1.03,1.03h15.17c.57,0,1.03-.46,1.03-1.03v-6.97c0-.34,.28-.62,.62-.62s.62,.28,.62,.62v6.97c0,1.24-1.01,2.26-2.26,2.26Z"/>
      <path class="cls-1" d="M5.54,13.11s-.09,0-.14-.02c-.28-.06-.48-.3-.48-.59v-1.23c0-4.41,3.59-8,8-8h.2V.62c0-.25,.15-.48,.39-.57,.23-.09,.5-.04,.67,.14l5.33,5.54c.23,.24,.23,.62,0,.85l-5.33,5.54c-.17,.18-.44,.24-.67,.14-.23-.09-.39-.32-.39-.57v-2.67h-.97c-2.58,0-4.9,1.43-6.05,3.74-.11,.21-.33,.35-.56,.35ZM12.92,4.51c-3.44,0-6.3,2.59-6.71,5.92,1.49-1.66,3.63-2.64,5.95-2.64h1.59c.34,0,.62,.28,.62,.62v1.76l3.86-4.01-3.86-4.01v1.76c0,.34-.28,.62-.62,.62h-.82Z"/>
    </g>
  </g>
</svg>