<?xml version="1.0" encoding="UTF-8"?>
<svg id="Layer_2" data-name="Layer 2" xmlns="http://www.w3.org/2000/svg" viewBox="0 0 19.9 19.9">
  <defs>
    <style>
      .cls-1 {
        fill: #ea5f28;
      }
    </style>
  </defs>
  <g id="Layer_1-2" data-name="Layer 1">
    <g id="g1452">
      <g id="g1454">
        <g id="g1456">
          <g id="g1462">
            <g id="path1464">
              <path class="cls-1" d="M4.1,15.17c-.9,0-1.79-.34-2.47-1.02l-1.03-1.03c-.8-.8-.8-2.09,0-2.89,.8-.79,2.09-.79,2.89,0l2.68,2.68L19.07,0l.82,.82L6.57,14.15c-.68,.68-1.58,1.02-2.47,1.02Zm-2.06-4.37c-.22,0-.45,.08-.62,.26s-.26,.38-.26,.62,.09,.45,.26,.62l1.03,1.03c.77,.77,1.94,.89,2.83,.36l-2.63-2.63c-.17-.17-.39-.26-.62-.26Z"/>
            </g>
          </g>
          <g id="g1466">
            <g id="path1468">
              <path class="cls-1" d="M15.8,15.17c-.9,0-1.79-.34-2.47-1.02L0,.82,.82,0,13.73,12.91l2.68-2.68c.8-.79,2.09-.79,2.89,0,.79,.8,.79,2.09,0,2.89l-1.03,1.03c-.68,.68-1.58,1.02-2.47,1.02Zm-1.18-1.49c.89,.53,2.07,.41,2.83-.36l1.03-1.03c.34-.34,.34-.9,0-1.24-.34-.34-.89-.34-1.24,0l-2.63,2.63Z"/>
            </g>
          </g>
          <g id="g1470">
            <g id="path1472">
              <rect class="cls-1" x="9.36" y="18.15" width="1.17" height="1.75"/>
            </g>
          </g>
          <g id="g1474">
            <g id="path1476">
              <path class="cls-1" d="M9.95,16.98c-.96,0-1.75-.79-1.75-1.75s.79-1.75,1.75-1.75,1.75,.79,1.75,1.75-.79,1.75-1.75,1.75Zm0-2.33c-.32,0-.58,.26-.58,.58s.26,.58,.58,.58,.58-.26,.58-.58-.26-.58-.58-.58Z"/>
            </g>
          </g>
        </g>
      </g>
    </g>
  </g>
</svg>