<?xml version="1.0" encoding="UTF-8"?>
<svg id="Layer_2" data-name="Layer 2" xmlns="http://www.w3.org/2000/svg" viewBox="0 0 13.12 19.68">
  <defs>
    <style>
      .cls-1 {
        fill: #e9b15c;
      }
    </style>
  </defs>
  <g id="Layer_1-2" data-name="Layer 1">
    <g>
      <path class="cls-1" d="M6.11,11.5C2.62,11.81-.05,14.77,0,18.28v.18c0,.68,.55,1.23,1.23,1.23h0c.68,0,1.23-.55,1.23-1.23v-.23c-.04-2.15,1.55-3.99,3.69-4.26,2.26-.22,4.27,1.42,4.49,3.68,.01,.13,.02,.27,.02,.4v.41c0,.68,.55,1.23,1.23,1.23h0c.68,0,1.23-.55,1.23-1.23v-.41c0-3.63-2.95-6.57-6.58-6.56-.15,0-.29,0-.43,.01Z"/>
      <path class="cls-1" d="M6.56,9.84c2.72,0,4.92-2.2,4.92-4.92S9.28,0,6.56,0,1.64,2.2,1.64,4.92c0,2.72,2.2,4.92,4.92,4.92Zm0-7.38c1.36,0,2.46,1.1,2.46,2.46s-1.1,2.46-2.46,2.46-2.46-1.1-2.46-2.46,1.1-2.46,2.46-2.46Z"/>
    </g>
  </g>
</svg>